<svg width="970" height="400" viewBox="0 0 970 400" fill="none" xmlns="http://www.w3.org/2000/svg">
<rect width="970" height="400" rx="6" fill="#161B22"/>
<path d="M23.548 26.762H24.99V27.812H23.548V32.306C23.548 32.446 23.5573 32.558 23.576 32.642C23.604 32.726 23.6507 32.7913 23.716 32.838C23.7813 32.8847 23.87 32.9173 23.982 32.936C24.1033 32.9453 24.2573 32.95 24.444 32.95H24.99V34H24.08C23.772 34 23.506 33.9813 23.282 33.944C23.0673 33.8973 22.89 33.818 22.75 33.706C22.6193 33.594 22.5213 33.4353 22.456 33.23C22.3907 33.0247 22.358 32.754 22.358 32.418V27.812H21.126V26.762H22.358V24.592H23.548V26.762ZM26.312 24.004H27.502V27.826H27.53C27.6233 27.602 27.754 27.4153 27.922 27.266C28.09 27.1073 28.2767 26.9813 28.482 26.888C28.6967 26.7853 28.916 26.7107 29.14 26.664C29.3733 26.6173 29.5973 26.594 29.812 26.594C30.288 26.594 30.6847 26.6593 31.002 26.79C31.3193 26.9207 31.576 27.1027 31.772 27.336C31.968 27.5693 32.1033 27.8493 32.178 28.176C32.262 28.4933 32.304 28.848 32.304 29.24V34H31.114V29.1C31.114 28.652 30.9833 28.2973 30.722 28.036C30.4607 27.7747 30.1013 27.644 29.644 27.644C29.28 27.644 28.9627 27.7 28.692 27.812C28.4307 27.924 28.2113 28.0827 28.034 28.288C27.8567 28.4933 27.7213 28.736 27.628 29.016C27.544 29.2867 27.502 29.5853 27.502 29.912V34H26.312V24.004ZM39.1173 29.688C39.0986 29.408 39.0333 29.142 38.9213 28.89C38.8186 28.638 38.674 28.4233 38.4873 28.246C38.31 28.0593 38.0953 27.9147 37.8433 27.812C37.6006 27.7 37.33 27.644 37.0313 27.644C36.7233 27.644 36.4433 27.7 36.1913 27.812C35.9486 27.9147 35.7386 28.0593 35.5613 28.246C35.384 28.4327 35.244 28.652 35.1413 28.904C35.0386 29.1467 34.978 29.408 34.9593 29.688H39.1173ZM40.2653 31.704C40.1066 32.516 39.7566 33.1273 39.2153 33.538C38.674 33.9487 37.9926 34.154 37.1713 34.154C36.5926 34.154 36.0886 34.0607 35.6593 33.874C35.2393 33.6873 34.8846 33.426 34.5953 33.09C34.306 32.754 34.0866 32.3527 33.9373 31.886C33.7973 31.4193 33.718 30.9107 33.6993 30.36C33.6993 29.8093 33.7833 29.3053 33.9513 28.848C34.1193 28.3907 34.3526 27.994 34.6513 27.658C34.9593 27.322 35.3186 27.0607 35.7293 26.874C36.1493 26.6873 36.6066 26.594 37.1013 26.594C37.7453 26.594 38.2773 26.7293 38.6973 27C39.1266 27.2613 39.4673 27.5973 39.7193 28.008C39.9806 28.4187 40.158 28.8667 40.2513 29.352C40.354 29.8373 40.396 30.2993 40.3773 30.738H34.9593C34.95 31.0553 34.9873 31.3587 35.0713 31.648C35.1553 31.928 35.2906 32.18 35.4773 32.404C35.664 32.6187 35.902 32.7913 36.1913 32.922C36.4806 33.0527 36.8213 33.118 37.2133 33.118C37.7173 33.118 38.128 33.0013 38.4453 32.768C38.772 32.5347 38.9866 32.18 39.0893 31.704H40.2653ZM46.4733 29.002C46.4733 29.506 46.5387 30.0053 46.6693 30.5C46.8 30.9853 47.0053 31.424 47.2853 31.816C47.5653 32.208 47.9247 32.5253 48.3633 32.768C48.802 33.0013 49.3247 33.118 49.9313 33.118C50.538 33.118 51.0607 33.0013 51.4993 32.768C51.938 32.5253 52.2973 32.208 52.5773 31.816C52.8573 31.424 53.0627 30.9853 53.1933 30.5C53.324 30.0053 53.3893 29.506 53.3893 29.002C53.3893 28.498 53.324 28.0033 53.1933 27.518C53.0627 27.0233 52.8573 26.58 52.5773 26.188C52.2973 25.796 51.938 25.4833 51.4993 25.25C51.0607 25.0073 50.538 24.886 49.9313 24.886C49.3247 24.886 48.802 25.0073 48.3633 25.25C47.9247 25.4833 47.5653 25.796 47.2853 26.188C47.0053 26.58 46.8 27.0233 46.6693 27.518C46.5387 28.0033 46.4733 28.498 46.4733 29.002ZM45.1433 29.002C45.1433 28.3207 45.2413 27.6673 45.4373 27.042C45.6427 26.4073 45.946 25.8473 46.3473 25.362C46.7487 24.8767 47.248 24.4893 47.8453 24.2C48.4427 23.9107 49.138 23.766 49.9313 23.766C50.7247 23.766 51.42 23.9107 52.0173 24.2C52.6147 24.4893 53.114 24.8767 53.5153 25.362C53.9167 25.8473 54.2153 26.4073 54.4113 27.042C54.6167 27.6673 54.7193 28.3207 54.7193 29.002C54.7193 29.6833 54.6167 30.3413 54.4113 30.976C54.2153 31.6013 53.9167 32.1567 53.5153 32.642C53.114 33.1273 52.6147 33.5147 52.0173 33.804C51.42 34.084 50.7247 34.224 49.9313 34.224C49.138 34.224 48.4427 34.084 47.8453 33.804C47.248 33.5147 46.7487 33.1273 46.3473 32.642C45.946 32.1567 45.6427 31.6013 45.4373 30.976C45.2413 30.3413 45.1433 29.6833 45.1433 29.002ZM56.144 26.762H57.264V27.826H57.292C57.8334 27.0047 58.6127 26.594 59.63 26.594C60.078 26.594 60.484 26.6873 60.848 26.874C61.212 27.0607 61.4687 27.378 61.618 27.826C61.8607 27.434 62.178 27.1307 62.57 26.916C62.9714 26.7013 63.41 26.594 63.886 26.594C64.25 26.594 64.5767 26.636 64.866 26.72C65.1647 26.7947 65.4167 26.916 65.622 27.084C65.8367 27.252 66 27.4713 66.112 27.742C66.2334 28.0033 66.294 28.3207 66.294 28.694V34H65.104V29.254C65.104 29.03 65.0854 28.82 65.048 28.624C65.0107 28.428 64.9407 28.26 64.838 28.12C64.7354 27.9707 64.5907 27.854 64.404 27.77C64.2267 27.686 63.9934 27.644 63.704 27.644C63.116 27.644 62.654 27.812 62.318 28.148C61.982 28.484 61.814 28.932 61.814 29.492V34H60.624V29.254C60.624 29.0207 60.6007 28.806 60.554 28.61C60.5167 28.414 60.4467 28.246 60.344 28.106C60.2414 27.9567 60.1014 27.8447 59.924 27.77C59.756 27.686 59.5367 27.644 59.266 27.644C58.9207 27.644 58.622 27.714 58.37 27.854C58.1274 27.994 57.9267 28.162 57.768 28.358C57.6187 28.554 57.5067 28.7593 57.432 28.974C57.3667 29.1793 57.334 29.352 57.334 29.492V34H56.144V26.762ZM68.0796 26.762H69.1996V27.91H69.2276C69.7223 27.0327 70.5063 26.594 71.5796 26.594C72.0556 26.594 72.4523 26.6593 72.7696 26.79C73.0869 26.9207 73.3436 27.1027 73.5396 27.336C73.7356 27.5693 73.8709 27.8493 73.9456 28.176C74.0296 28.4933 74.0716 28.848 74.0716 29.24V34H72.8816V29.1C72.8816 28.652 72.7509 28.2973 72.4896 28.036C72.2283 27.7747 71.8689 27.644 71.4116 27.644C71.0476 27.644 70.7303 27.7 70.4596 27.812C70.1983 27.924 69.9789 28.0827 69.8016 28.288C69.6243 28.4933 69.4889 28.736 69.3956 29.016C69.3116 29.2867 69.2696 29.5853 69.2696 29.912V34H68.0796V26.762ZM77.1189 25.46H75.9289V24.004H77.1189V25.46ZM75.9289 26.762H77.1189V34H75.9289V26.762ZM79.0044 26.762H80.1944V27.742H80.2224C80.4184 27.3407 80.7264 27.0513 81.1464 26.874C81.5664 26.6873 82.0284 26.594 82.5324 26.594C83.0924 26.594 83.5777 26.6967 83.9884 26.902C84.4084 27.1073 84.7537 27.3873 85.0244 27.742C85.3044 28.0873 85.5144 28.4887 85.6544 28.946C85.7944 29.4033 85.8644 29.8887 85.8644 30.402C85.8644 30.9153 85.7944 31.4007 85.6544 31.858C85.5237 32.3153 85.3184 32.7167 85.0384 33.062C84.7677 33.398 84.4224 33.664 84.0024 33.86C83.5917 34.056 83.1111 34.154 82.5604 34.154C82.3831 34.154 82.1824 34.1353 81.9584 34.098C81.7437 34.0607 81.5291 34 81.3144 33.916C81.0997 33.832 80.8944 33.72 80.6984 33.58C80.5117 33.4307 80.3531 33.2487 80.2224 33.034H80.1944V36.758H79.0044V26.762ZM84.6044 30.318C84.6044 29.982 84.5577 29.6553 84.4644 29.338C84.3804 29.0113 84.2451 28.722 84.0584 28.47C83.8811 28.218 83.6477 28.0173 83.3584 27.868C83.0784 27.7187 82.7471 27.644 82.3644 27.644C81.9631 27.644 81.6224 27.7233 81.3424 27.882C81.0624 28.0407 80.8337 28.2507 80.6564 28.512C80.4791 28.764 80.3484 29.0533 80.2644 29.38C80.1897 29.7067 80.1524 30.038 80.1524 30.374C80.1524 30.7287 80.1944 31.074 80.2784 31.41C80.3624 31.7367 80.4931 32.026 80.6704 32.278C80.8571 32.53 81.0951 32.7353 81.3844 32.894C81.6737 33.0433 82.0237 33.118 82.4344 33.118C82.8451 33.118 83.1857 33.0387 83.4564 32.88C83.7364 32.7213 83.9604 32.5113 84.1284 32.25C84.2964 31.9887 84.4177 31.69 84.4924 31.354C84.5671 31.018 84.6044 30.6727 84.6044 30.318ZM87.2192 26.762H88.3392V28.288H88.3672C88.6566 27.7 89.0112 27.266 89.4312 26.986C89.8512 26.706 90.3832 26.5753 91.0272 26.594V27.854C90.5512 27.854 90.1452 27.9193 89.8092 28.05C89.4732 28.1807 89.2026 28.372 88.9972 28.624C88.7919 28.876 88.6426 29.184 88.5492 29.548C88.4559 29.9027 88.4092 30.3133 88.4092 30.78V34H87.2192V26.762ZM96.7033 29.688C96.6846 29.408 96.6193 29.142 96.5073 28.89C96.4046 28.638 96.2599 28.4233 96.0733 28.246C95.8959 28.0593 95.6813 27.9147 95.4293 27.812C95.1866 27.7 94.9159 27.644 94.6173 27.644C94.3093 27.644 94.0293 27.7 93.7773 27.812C93.5346 27.9147 93.3246 28.0593 93.1473 28.246C92.9699 28.4327 92.8299 28.652 92.7273 28.904C92.6246 29.1467 92.5639 29.408 92.5453 29.688H96.7033ZM97.8512 31.704C97.6926 32.516 97.3426 33.1273 96.8013 33.538C96.2599 33.9487 95.5786 34.154 94.7573 34.154C94.1786 34.154 93.6746 34.0607 93.2453 33.874C92.8253 33.6873 92.4706 33.426 92.1813 33.09C91.8919 32.754 91.6726 32.3527 91.5233 31.886C91.3833 31.4193 91.3039 30.9107 91.2853 30.36C91.2853 29.8093 91.3693 29.3053 91.5373 28.848C91.7053 28.3907 91.9386 27.994 92.2373 27.658C92.5453 27.322 92.9046 27.0607 93.3153 26.874C93.7353 26.6873 94.1926 26.594 94.6873 26.594C95.3313 26.594 95.8633 26.7293 96.2833 27C96.7126 27.2613 97.0533 27.5973 97.3053 28.008C97.5666 28.4187 97.7439 28.8667 97.8373 29.352C97.9399 29.8373 97.9819 30.2993 97.9633 30.738H92.5453C92.5359 31.0553 92.5733 31.3587 92.6573 31.648C92.7413 31.928 92.8766 32.18 93.0633 32.404C93.2499 32.6187 93.4879 32.7913 93.7773 32.922C94.0666 33.0527 94.4073 33.118 94.7993 33.118C95.3033 33.118 95.7139 33.0013 96.0313 32.768C96.3579 32.5347 96.5726 32.18 96.6753 31.704H97.8512ZM99.9248 31.718C99.9341 31.9793 99.9948 32.2033 100.107 32.39C100.219 32.5673 100.363 32.712 100.541 32.824C100.727 32.9267 100.933 33.0013 101.157 33.048C101.39 33.0947 101.628 33.118 101.871 33.118C102.057 33.118 102.253 33.104 102.459 33.076C102.664 33.048 102.851 32.9967 103.019 32.922C103.196 32.8473 103.341 32.74 103.453 32.6C103.565 32.4507 103.621 32.264 103.621 32.04C103.621 31.732 103.504 31.4987 103.271 31.34C103.037 31.1813 102.743 31.0553 102.389 30.962C102.043 30.8593 101.665 30.7707 101.255 30.696C100.844 30.612 100.461 30.5 100.107 30.36C99.7614 30.2107 99.4721 30.0053 99.2388 29.744C99.0054 29.4827 98.8888 29.1187 98.8888 28.652C98.8888 28.288 98.9681 27.9753 99.1268 27.714C99.2948 27.4527 99.5048 27.2427 99.7568 27.084C100.018 26.916 100.307 26.7947 100.625 26.72C100.951 26.636 101.273 26.594 101.591 26.594C102.001 26.594 102.379 26.6313 102.725 26.706C103.07 26.7713 103.373 26.8927 103.635 27.07C103.905 27.238 104.12 27.4713 104.279 27.77C104.437 28.0593 104.531 28.4233 104.559 28.862H103.369C103.35 28.6287 103.289 28.4373 103.187 28.288C103.084 28.1293 102.953 28.0033 102.795 27.91C102.636 27.8167 102.459 27.7513 102.263 27.714C102.076 27.6673 101.885 27.644 101.689 27.644C101.511 27.644 101.329 27.658 101.143 27.686C100.965 27.714 100.802 27.7653 100.653 27.84C100.503 27.9053 100.382 27.9987 100.289 28.12C100.195 28.232 100.149 28.3813 100.149 28.568C100.149 28.7733 100.219 28.946 100.359 29.086C100.508 29.2167 100.695 29.3287 100.919 29.422C101.143 29.506 101.395 29.5807 101.675 29.646C101.955 29.702 102.235 29.7627 102.515 29.828C102.813 29.8933 103.103 29.9727 103.383 30.066C103.672 30.1593 103.924 30.2853 104.139 30.444C104.363 30.5933 104.54 30.7847 104.671 31.018C104.811 31.2513 104.881 31.5407 104.881 31.886C104.881 32.3247 104.787 32.6887 104.601 32.978C104.423 33.2673 104.185 33.5007 103.887 33.678C103.597 33.8553 103.266 33.9767 102.893 34.042C102.529 34.1167 102.165 34.154 101.801 34.154C101.399 34.154 101.017 34.112 100.653 34.028C100.289 33.944 99.9668 33.8087 99.6868 33.622C99.4068 33.426 99.1828 33.174 99.0148 32.866C98.8468 32.5487 98.7534 32.166 98.7348 31.718H99.9248ZM111.223 29.688C111.204 29.408 111.139 29.142 111.027 28.89C110.924 28.638 110.779 28.4233 110.593 28.246C110.415 28.0593 110.201 27.9147 109.949 27.812C109.706 27.7 109.435 27.644 109.137 27.644C108.829 27.644 108.549 27.7 108.297 27.812C108.054 27.9147 107.844 28.0593 107.667 28.246C107.489 28.4327 107.349 28.652 107.247 28.904C107.144 29.1467 107.083 29.408 107.065 29.688H111.223ZM112.371 31.704C112.212 32.516 111.862 33.1273 111.321 33.538C110.779 33.9487 110.098 34.154 109.277 34.154C108.698 34.154 108.194 34.0607 107.765 33.874C107.345 33.6873 106.99 33.426 106.701 33.09C106.411 32.754 106.192 32.3527 106.043 31.886C105.903 31.4193 105.823 30.9107 105.805 30.36C105.805 29.8093 105.889 29.3053 106.057 28.848C106.225 28.3907 106.458 27.994 106.757 27.658C107.065 27.322 107.424 27.0607 107.835 26.874C108.255 26.6873 108.712 26.594 109.207 26.594C109.851 26.594 110.383 26.7293 110.803 27C111.232 27.2613 111.573 27.5973 111.825 28.008C112.086 28.4187 112.263 28.8667 112.357 29.352C112.459 29.8373 112.501 30.2993 112.483 30.738H107.065C107.055 31.0553 107.093 31.3587 107.177 31.648C107.261 31.928 107.396 32.18 107.583 32.404C107.769 32.6187 108.007 32.7913 108.297 32.922C108.586 33.0527 108.927 33.118 109.319 33.118C109.823 33.118 110.233 33.0013 110.551 32.768C110.877 32.5347 111.092 32.18 111.195 31.704H112.371ZM113.716 26.762H114.836V27.91H114.864C115.359 27.0327 116.143 26.594 117.216 26.594C117.692 26.594 118.089 26.6593 118.406 26.79C118.724 26.9207 118.98 27.1027 119.176 27.336C119.372 27.5693 119.508 27.8493 119.582 28.176C119.666 28.4933 119.708 28.848 119.708 29.24V34H118.518V29.1C118.518 28.652 118.388 28.2973 118.126 28.036C117.865 27.7747 117.506 27.644 117.048 27.644C116.684 27.644 116.367 27.7 116.096 27.812C115.835 27.924 115.616 28.0827 115.438 28.288C115.261 28.4933 115.126 28.736 115.032 29.016C114.948 29.2867 114.906 29.5853 114.906 29.912V34H113.716V26.762ZM123.148 26.762H124.59V27.812H123.148V32.306C123.148 32.446 123.157 32.558 123.176 32.642C123.204 32.726 123.25 32.7913 123.316 32.838C123.381 32.8847 123.47 32.9173 123.582 32.936C123.703 32.9453 123.857 32.95 124.044 32.95H124.59V34H123.68C123.372 34 123.106 33.9813 122.882 33.944C122.667 33.8973 122.49 33.818 122.35 33.706C122.219 33.594 122.121 33.4353 122.056 33.23C121.99 33.0247 121.958 32.754 121.958 32.418V27.812H120.726V26.762H121.958V24.592H123.148V26.762ZM31.122 50H29.736L27.454 41.6H27.426L25.116 50H23.73L21.168 40.004H22.526L24.486 48.32H24.514L26.754 40.004H28.196L30.408 48.32H30.436L32.466 40.004H33.796L31.122 50ZM34.932 46.388C34.932 46.8267 34.988 47.2187 35.1 47.564C35.2213 47.9 35.3846 48.1847 35.59 48.418C35.7953 48.642 36.0333 48.8147 36.304 48.936C36.584 49.0573 36.878 49.118 37.186 49.118C37.494 49.118 37.7833 49.0573 38.054 48.936C38.334 48.8147 38.5766 48.642 38.782 48.418C38.9873 48.1847 39.146 47.9 39.258 47.564C39.3793 47.2187 39.44 46.8267 39.44 46.388C39.44 45.9493 39.3793 45.562 39.258 45.226C39.146 44.8807 38.9873 44.5913 38.782 44.358C38.5766 44.1247 38.334 43.9473 38.054 43.826C37.7833 43.7047 37.494 43.644 37.186 43.644C36.878 43.644 36.584 43.7047 36.304 43.826C36.0333 43.9473 35.7953 44.1247 35.59 44.358C35.3846 44.5913 35.2213 44.8807 35.1 45.226C34.988 45.562 34.932 45.9493 34.932 46.388ZM33.672 46.388C33.672 45.856 33.7466 45.3613 33.896 44.904C34.0453 44.4373 34.2693 44.036 34.568 43.7C34.8666 43.3547 35.2353 43.084 35.674 42.888C36.1126 42.692 36.6166 42.594 37.186 42.594C37.7646 42.594 38.2686 42.692 38.698 42.888C39.1366 43.084 39.5053 43.3547 39.804 43.7C40.1026 44.036 40.3266 44.4373 40.476 44.904C40.6253 45.3613 40.7 45.856 40.7 46.388C40.7 46.92 40.6253 47.4147 40.476 47.872C40.3266 48.3293 40.1026 48.7307 39.804 49.076C39.5053 49.412 39.1366 49.678 38.698 49.874C38.2686 50.0607 37.7646 50.154 37.186 50.154C36.6166 50.154 36.1126 50.0607 35.674 49.874C35.2353 49.678 34.8666 49.412 34.568 49.076C34.2693 48.7307 34.0453 48.3293 33.896 47.872C33.7466 47.4147 33.672 46.92 33.672 46.388ZM42.061 42.762H43.181V44.288H43.209C43.4984 43.7 43.853 43.266 44.273 42.986C44.693 42.706 45.225 42.5753 45.869 42.594V43.854C45.393 43.854 44.987 43.9193 44.651 44.05C44.315 44.1807 44.0444 44.372 43.839 44.624C43.6337 44.876 43.4844 45.184 43.391 45.548C43.2977 45.9027 43.251 46.3133 43.251 46.78V50H42.061V42.762ZM46.8351 40.004H48.0251V50H46.8351V40.004ZM50.7367 46.444C50.7367 46.78 50.7787 47.1113 50.8627 47.438C50.956 47.7553 51.0913 48.04 51.2687 48.292C51.4553 48.544 51.6887 48.7447 51.9687 48.894C52.258 49.0433 52.594 49.118 52.9767 49.118C53.378 49.118 53.7187 49.0387 53.9987 48.88C54.2787 48.7213 54.5073 48.516 54.6847 48.264C54.862 48.0027 54.988 47.7087 55.0627 47.382C55.1467 47.0553 55.1887 46.724 55.1887 46.388C55.1887 46.0333 55.1467 45.6927 55.0627 45.366C54.9787 45.03 54.8433 44.736 54.6567 44.484C54.4793 44.232 54.246 44.0313 53.9567 43.882C53.6673 43.7233 53.3173 43.644 52.9067 43.644C52.5053 43.644 52.1647 43.7233 51.8847 43.882C51.6047 44.0407 51.3807 44.2507 51.2127 44.512C51.0447 44.7733 50.9233 45.072 50.8487 45.408C50.774 45.744 50.7367 46.0893 50.7367 46.444ZM56.3367 50H55.1467V49.02H55.1187C54.9227 49.4213 54.6147 49.7107 54.1947 49.888C53.7747 50.0653 53.3127 50.154 52.8087 50.154C52.2487 50.154 51.7587 50.0513 51.3387 49.846C50.928 49.6407 50.5827 49.3653 50.3027 49.02C50.032 48.6747 49.8267 48.2733 49.6867 47.816C49.5467 47.3587 49.4767 46.8733 49.4767 46.36C49.4767 45.8467 49.542 45.3613 49.6727 44.904C49.8127 44.4467 50.018 44.05 50.2887 43.714C50.5687 43.3687 50.914 43.098 51.3247 42.902C51.7447 42.6967 52.23 42.594 52.7807 42.594C52.9673 42.594 53.168 42.6127 53.3827 42.65C53.5973 42.6873 53.812 42.7527 54.0267 42.846C54.2413 42.93 54.442 43.0467 54.6287 43.196C54.8247 43.336 54.988 43.5133 55.1187 43.728H55.1467V40.004H56.3367V50ZM63.03 45.002C63.03 45.506 63.0953 46.0053 63.226 46.5C63.3566 46.9853 63.562 47.424 63.842 47.816C64.122 48.208 64.4813 48.5253 64.92 48.768C65.3586 49.0013 65.8813 49.118 66.488 49.118C67.0946 49.118 67.6173 49.0013 68.056 48.768C68.4946 48.5253 68.854 48.208 69.134 47.816C69.414 47.424 69.6193 46.9853 69.75 46.5C69.8806 46.0053 69.946 45.506 69.946 45.002C69.946 44.498 69.8806 44.0033 69.75 43.518C69.6193 43.0233 69.414 42.58 69.134 42.188C68.854 41.796 68.4946 41.4833 68.056 41.25C67.6173 41.0073 67.0946 40.886 66.488 40.886C65.8813 40.886 65.3586 41.0073 64.92 41.25C64.4813 41.4833 64.122 41.796 63.842 42.188C63.562 42.58 63.3566 43.0233 63.226 43.518C63.0953 44.0033 63.03 44.498 63.03 45.002ZM61.7 45.002C61.7 44.3207 61.798 43.6673 61.994 43.042C62.1993 42.4073 62.5026 41.8473 62.904 41.362C63.3053 40.8767 63.8046 40.4893 64.402 40.2C64.9993 39.9107 65.6946 39.766 66.488 39.766C67.2813 39.766 67.9766 39.9107 68.574 40.2C69.1713 40.4893 69.6706 40.8767 70.072 41.362C70.4733 41.8473 70.772 42.4073 70.968 43.042C71.1733 43.6673 71.276 44.3207 71.276 45.002C71.276 45.6833 71.1733 46.3413 70.968 46.976C70.772 47.6013 70.4733 48.1567 70.072 48.642C69.6706 49.1273 69.1713 49.5147 68.574 49.804C67.9766 50.084 67.2813 50.224 66.488 50.224C65.6946 50.224 64.9993 50.084 64.402 49.804C63.8046 49.5147 63.3053 49.1273 62.904 48.642C62.5026 48.1567 62.1993 47.6013 61.994 46.976C61.798 46.3413 61.7 45.6833 61.7 45.002ZM73.1907 43.812H71.9727V42.762H73.1907V41.684C73.1907 41.096 73.3587 40.6527 73.6947 40.354C74.04 40.046 74.5394 39.892 75.1927 39.892C75.3047 39.892 75.4307 39.9013 75.5707 39.92C75.72 39.9387 75.8507 39.9667 75.9627 40.004V41.04C75.86 41.0027 75.748 40.9793 75.6267 40.97C75.5054 40.9513 75.3934 40.942 75.2907 40.942C75.0014 40.942 74.7774 40.998 74.6187 41.11C74.46 41.222 74.3807 41.4367 74.3807 41.754V42.762H75.7807V43.812H74.3807V50H73.1907V43.812ZM89.9658 50H88.5798L86.2978 41.6H86.2698L83.9597 50H82.5738L80.0118 40.004H81.3698L83.3298 48.32H83.3578L85.5978 40.004H87.0397L89.2518 48.32H89.2798L91.3098 40.004H92.6398L89.9658 50ZM94.9607 41.46H93.7707V40.004H94.9607V41.46ZM93.7707 42.762H94.9607V50H93.7707V42.762ZM96.2162 49.09L100.584 43.812H96.4962V42.762H102.124V43.574L97.7002 48.95H102.32V50H96.2162V49.09ZM103.601 40.004H104.791V45.926L108.095 42.762H109.691L106.821 45.394L109.901 50H108.389L105.911 46.22L104.791 47.256V50H103.601V40.004ZM112.051 41.46H110.861V40.004H112.051V41.46ZM110.861 42.762H112.051V50H110.861V42.762ZM114.762 46.444C114.762 46.78 114.804 47.1113 114.888 47.438C114.981 47.7553 115.117 48.04 115.294 48.292C115.481 48.544 115.714 48.7447 115.994 48.894C116.283 49.0433 116.619 49.118 117.002 49.118C117.403 49.118 117.744 49.0387 118.024 48.88C118.304 48.7213 118.533 48.516 118.71 48.264C118.887 48.0027 119.013 47.7087 119.088 47.382C119.172 47.0553 119.214 46.724 119.214 46.388C119.214 46.0333 119.172 45.6927 119.088 45.366C119.004 45.03 118.869 44.736 118.682 44.484C118.505 44.232 118.271 44.0313 117.982 43.882C117.693 43.7233 117.343 43.644 116.932 43.644C116.531 43.644 116.19 43.7233 115.91 43.882C115.63 44.0407 115.406 44.2507 115.238 44.512C115.07 44.7733 114.949 45.072 114.874 45.408C114.799 45.744 114.762 46.0893 114.762 46.444ZM120.362 50H119.172V49.02H119.144C118.948 49.4213 118.64 49.7107 118.22 49.888C117.8 50.0653 117.338 50.154 116.834 50.154C116.274 50.154 115.784 50.0513 115.364 49.846C114.953 49.6407 114.608 49.3653 114.328 49.02C114.057 48.6747 113.852 48.2733 113.712 47.816C113.572 47.3587 113.502 46.8733 113.502 46.36C113.502 45.8467 113.567 45.3613 113.698 44.904C113.838 44.4467 114.043 44.05 114.314 43.714C114.594 43.3687 114.939 43.098 115.35 42.902C115.77 42.6967 116.255 42.594 116.806 42.594C116.993 42.594 117.193 42.6127 117.408 42.65C117.623 42.6873 117.837 42.7527 118.052 42.846C118.267 42.93 118.467 43.0467 118.654 43.196C118.85 43.336 119.013 43.5133 119.144 43.728H119.172V40.004H120.362V50ZM122.921 47.718C122.93 47.9793 122.991 48.2033 123.103 48.39C123.215 48.5673 123.36 48.712 123.537 48.824C123.724 48.9267 123.929 49.0013 124.153 49.048C124.386 49.0947 124.624 49.118 124.867 49.118C125.054 49.118 125.25 49.104 125.455 49.076C125.66 49.048 125.847 48.9967 126.015 48.922C126.192 48.8473 126.337 48.74 126.449 48.6C126.561 48.4507 126.617 48.264 126.617 48.04C126.617 47.732 126.5 47.4987 126.267 47.34C126.034 47.1813 125.74 47.0553 125.385 46.962C125.04 46.8593 124.662 46.7707 124.251 46.696C123.84 46.612 123.458 46.5 123.103 46.36C122.758 46.2107 122.468 46.0053 122.235 45.744C122.002 45.4827 121.885 45.1187 121.885 44.652C121.885 44.288 121.964 43.9753 122.123 43.714C122.291 43.4527 122.501 43.2427 122.753 43.084C123.014 42.916 123.304 42.7947 123.621 42.72C123.948 42.636 124.27 42.594 124.587 42.594C124.998 42.594 125.376 42.6313 125.721 42.706C126.066 42.7713 126.37 42.8927 126.631 43.07C126.902 43.238 127.116 43.4713 127.275 43.77C127.434 44.0593 127.527 44.4233 127.555 44.862H126.365C126.346 44.6287 126.286 44.4373 126.183 44.288C126.08 44.1293 125.95 44.0033 125.791 43.91C125.632 43.8167 125.455 43.7513 125.259 43.714C125.072 43.6673 124.881 43.644 124.685 43.644C124.508 43.644 124.326 43.658 124.139 43.686C123.962 43.714 123.798 43.7653 123.649 43.84C123.5 43.9053 123.378 43.9987 123.285 44.12C123.192 44.232 123.145 44.3813 123.145 44.568C123.145 44.7733 123.215 44.946 123.355 45.086C123.504 45.2167 123.691 45.3287 123.915 45.422C124.139 45.506 124.391 45.5807 124.671 45.646C124.951 45.702 125.231 45.7627 125.511 45.828C125.81 45.8933 126.099 45.9727 126.379 46.066C126.668 46.1593 126.92 46.2853 127.135 46.444C127.359 46.5933 127.536 46.7847 127.667 47.018C127.807 47.2513 127.877 47.5407 127.877 47.886C127.877 48.3247 127.784 48.6887 127.597 48.978C127.42 49.2673 127.182 49.5007 126.883 49.678C126.594 49.8553 126.262 49.9767 125.889 50.042C125.525 50.1167 125.161 50.154 124.797 50.154C124.396 50.154 124.013 50.112 123.649 50.028C123.285 49.944 122.963 49.8087 122.683 49.622C122.403 49.426 122.179 49.174 122.011 48.866C121.843 48.5487 121.75 48.166 121.731 47.718H122.921Z" fill="#D4FF7A"/>
<g clip-path="url(#clip0_1940_216)">
<path d="M890.691 34.4871C889.147 35.997 887.247 36.7435 885.007 36.7435C882.751 36.7435 880.851 35.997 879.324 34.4871C877.763 32.9773 877 31.1111 877 28.8717C877 26.6324 877.763 24.7662 879.307 23.2563C880.851 21.7465 882.751 21 885.007 21C887.264 21 889.164 21.7465 890.691 23.2563C892.235 24.7662 892.998 26.6324 892.998 28.8717C892.998 31.1111 892.235 32.9773 890.691 34.4871ZM889.537 28.8717C889.537 27.5145 889.096 26.3609 888.231 25.3939C887.366 24.4269 886.28 23.9519 885.007 23.9519C883.735 23.9519 882.666 24.4269 881.784 25.3939C880.919 26.3609 880.478 27.5145 880.478 28.8717C880.478 30.2289 880.919 31.3826 881.784 32.3326C882.649 33.2826 883.735 33.7577 885.007 33.7577C886.28 33.7577 887.349 33.2826 888.231 32.3326C889.096 31.3995 889.537 30.2459 889.537 28.8717Z" fill="#D4FF7A"/>
<path d="M898.207 30.1102L900.904 21.3394H904.45L907.13 30.1102L910.167 21.3394H913.848L908.538 36.5739H906.011L902.668 25.9878L899.36 36.5739H896.832L891.522 21.3563H895.204L898.207 30.1102Z" fill="#D4FF7A"/>
<path d="M926.062 34.4871C924.519 35.997 922.619 36.7435 920.379 36.7435C918.123 36.7435 916.223 35.997 914.696 34.4871C913.152 32.9773 912.389 31.1111 912.389 28.8717C912.389 26.6324 913.152 24.7662 914.696 23.2563C916.223 21.7465 918.123 21 920.379 21C922.636 21 924.536 21.7465 926.062 23.2563C927.606 24.7662 928.37 26.6324 928.37 28.8717C928.37 31.1111 927.606 32.9773 926.062 34.4871ZM924.909 28.8717C924.909 27.5145 924.468 26.3609 923.603 25.3939C922.737 24.4269 921.652 23.9519 920.379 23.9519C919.107 23.9519 918.038 24.4269 917.156 25.3939C916.291 26.3609 915.85 27.5145 915.85 28.8717C915.85 30.2289 916.291 31.3826 917.156 32.3326C918.021 33.2826 919.107 33.7577 920.379 33.7577C921.652 33.7577 922.72 33.2826 923.603 32.3326C924.468 31.3995 924.909 30.2459 924.909 28.8717Z" fill="#D4FF7A"/>
<path d="M933.578 30.1102L936.275 21.3394H939.821L942.501 30.1102L945.538 21.3394H949.219L943.892 36.5739H941.365L938.023 25.9878L934.714 36.5739H932.187L926.894 21.3563H930.575L933.578 30.1102Z" fill="#D4FF7A"/>
</g>
<path d="M22.764 375.388C22.764 375.827 22.82 376.219 22.932 376.564C23.0533 376.9 23.2167 377.185 23.422 377.418C23.6273 377.642 23.8653 377.815 24.136 377.936C24.416 378.057 24.71 378.118 25.018 378.118C25.326 378.118 25.6153 378.057 25.886 377.936C26.166 377.815 26.4087 377.642 26.614 377.418C26.8193 377.185 26.978 376.9 27.09 376.564C27.2113 376.219 27.272 375.827 27.272 375.388C27.272 374.949 27.2113 374.562 27.09 374.226C26.978 373.881 26.8193 373.591 26.614 373.358C26.4087 373.125 26.166 372.947 25.886 372.826C25.6153 372.705 25.326 372.644 25.018 372.644C24.71 372.644 24.416 372.705 24.136 372.826C23.8653 372.947 23.6273 373.125 23.422 373.358C23.2167 373.591 23.0533 373.881 22.932 374.226C22.82 374.562 22.764 374.949 22.764 375.388ZM21.504 375.388C21.504 374.856 21.5787 374.361 21.728 373.904C21.8773 373.437 22.1013 373.036 22.4 372.7C22.6987 372.355 23.0673 372.084 23.506 371.888C23.9447 371.692 24.4487 371.594 25.018 371.594C25.5967 371.594 26.1007 371.692 26.53 371.888C26.9687 372.084 27.3373 372.355 27.636 372.7C27.9347 373.036 28.1587 373.437 28.308 373.904C28.4573 374.361 28.532 374.856 28.532 375.388C28.532 375.92 28.4573 376.415 28.308 376.872C28.1587 377.329 27.9347 377.731 27.636 378.076C27.3373 378.412 26.9687 378.678 26.53 378.874C26.1007 379.061 25.5967 379.154 25.018 379.154C24.4487 379.154 23.9447 379.061 23.506 378.874C23.0673 378.678 22.6987 378.412 22.4 378.076C22.1013 377.731 21.8773 377.329 21.728 376.872C21.5787 376.415 21.504 375.92 21.504 375.388ZM37.1031 379H35.8431L34.3731 373.246H34.3451L32.8891 379H31.6011L29.2771 371.762H30.5931L32.2311 377.684H32.2591L33.7151 371.762H35.0171L36.5291 377.684H36.5571L38.1811 371.762H39.4131L37.1031 379ZM41.4124 375.388C41.4124 375.827 41.4684 376.219 41.5804 376.564C41.7018 376.9 41.8651 377.185 42.0704 377.418C42.2758 377.642 42.5138 377.815 42.7844 377.936C43.0644 378.057 43.3584 378.118 43.6664 378.118C43.9744 378.118 44.2638 378.057 44.5344 377.936C44.8144 377.815 45.0571 377.642 45.2624 377.418C45.4678 377.185 45.6264 376.9 45.7384 376.564C45.8598 376.219 45.9204 375.827 45.9204 375.388C45.9204 374.949 45.8598 374.562 45.7384 374.226C45.6264 373.881 45.4678 373.591 45.2624 373.358C45.0571 373.125 44.8144 372.947 44.5344 372.826C44.2638 372.705 43.9744 372.644 43.6664 372.644C43.3584 372.644 43.0644 372.705 42.7844 372.826C42.5138 372.947 42.2758 373.125 42.0704 373.358C41.8651 373.591 41.7018 373.881 41.5804 374.226C41.4684 374.562 41.4124 374.949 41.4124 375.388ZM40.1524 375.388C40.1524 374.856 40.2271 374.361 40.3764 373.904C40.5258 373.437 40.7498 373.036 41.0484 372.7C41.3471 372.355 41.7158 372.084 42.1544 371.888C42.5931 371.692 43.0971 371.594 43.6664 371.594C44.2451 371.594 44.7491 371.692 45.1784 371.888C45.6171 372.084 45.9858 372.355 46.2844 372.7C46.5831 373.036 46.8071 373.437 46.9564 373.904C47.1058 374.361 47.1804 374.856 47.1804 375.388C47.1804 375.92 47.1058 376.415 46.9564 376.872C46.8071 377.329 46.5831 377.731 46.2844 378.076C45.9858 378.412 45.6171 378.678 45.1784 378.874C44.7491 379.061 44.2451 379.154 43.6664 379.154C43.0971 379.154 42.5931 379.061 42.1544 378.874C41.7158 378.678 41.3471 378.412 41.0484 378.076C40.7498 377.731 40.5258 377.329 40.3764 376.872C40.2271 376.415 40.1524 375.92 40.1524 375.388ZM55.7515 379H54.4915L53.0215 373.246H52.9935L51.5375 379H50.2495L47.9255 371.762H49.2415L50.8795 377.684H50.9075L52.3635 371.762H53.6655L55.1775 377.684H55.2055L56.8295 371.762H58.0615L55.7515 379ZM58.6933 377.446H60.2473V379H58.6933V377.446ZM63.5837 370.46H62.3937V369.004H63.5837V370.46ZM62.3937 371.762H63.5837V379H62.3937V371.762ZM66.2953 375.388C66.2953 375.827 66.3513 376.219 66.4633 376.564C66.5846 376.9 66.7479 377.185 66.9533 377.418C67.1586 377.642 67.3966 377.815 67.6673 377.936C67.9473 378.057 68.2413 378.118 68.5493 378.118C68.8573 378.118 69.1466 378.057 69.4173 377.936C69.6973 377.815 69.9399 377.642 70.1453 377.418C70.3506 377.185 70.5093 376.9 70.6213 376.564C70.7426 376.219 70.8033 375.827 70.8033 375.388C70.8033 374.949 70.7426 374.562 70.6213 374.226C70.5093 373.881 70.3506 373.591 70.1453 373.358C69.9399 373.125 69.6973 372.947 69.4173 372.826C69.1466 372.705 68.8573 372.644 68.5493 372.644C68.2413 372.644 67.9473 372.705 67.6673 372.826C67.3966 372.947 67.1586 373.125 66.9533 373.358C66.7479 373.591 66.5846 373.881 66.4633 374.226C66.3513 374.562 66.2953 374.949 66.2953 375.388ZM65.0353 375.388C65.0353 374.856 65.1099 374.361 65.2593 373.904C65.4086 373.437 65.6326 373.036 65.9313 372.7C66.2299 372.355 66.5986 372.084 67.0373 371.888C67.4759 371.692 67.9799 371.594 68.5493 371.594C69.1279 371.594 69.6319 371.692 70.0613 371.888C70.4999 372.084 70.8686 372.355 71.1673 372.7C71.4659 373.036 71.6899 373.437 71.8393 373.904C71.9886 374.361 72.0633 374.856 72.0633 375.388C72.0633 375.92 71.9886 376.415 71.8393 376.872C71.6899 377.329 71.4659 377.731 71.1673 378.076C70.8686 378.412 70.4999 378.678 70.0613 378.874C69.6319 379.061 69.1279 379.154 68.5493 379.154C67.9799 379.154 67.4759 379.061 67.0373 378.874C66.5986 378.678 66.2299 378.412 65.9313 378.076C65.6326 377.731 65.4086 377.329 65.2593 376.872C65.1099 376.415 65.0353 375.92 65.0353 375.388Z" fill="#D4FF7A"/>
<path d="M851.891 372.302H854.551C855.307 372.302 855.848 372.171 856.175 371.91C856.511 371.639 856.679 371.238 856.679 370.706C856.679 370.351 856.623 370.071 856.511 369.866C856.399 369.661 856.245 369.502 856.049 369.39C855.853 369.278 855.624 369.208 855.363 369.18C855.111 369.143 854.84 369.124 854.551 369.124H851.891V372.302ZM850.561 368.004H854.187C854.401 368.004 854.63 368.009 854.873 368.018C855.125 368.018 855.372 368.032 855.615 368.06C855.857 368.079 856.081 368.111 856.287 368.158C856.501 368.205 856.683 368.275 856.833 368.368C857.159 368.564 857.435 368.835 857.659 369.18C857.892 369.525 858.009 369.95 858.009 370.454C858.009 370.986 857.878 371.448 857.617 371.84C857.365 372.223 857.001 372.507 856.525 372.694V372.722C857.141 372.853 857.612 373.133 857.939 373.562C858.265 373.991 858.429 374.514 858.429 375.13C858.429 375.494 858.363 375.849 858.233 376.194C858.102 376.539 857.906 376.847 857.645 377.118C857.393 377.379 857.075 377.594 856.693 377.762C856.319 377.921 855.885 378 855.391 378H850.561V368.004ZM851.891 376.88H855.223C855.811 376.88 856.268 376.721 856.595 376.404C856.931 376.087 857.099 375.648 857.099 375.088C857.099 374.761 857.038 374.491 856.917 374.276C856.795 374.061 856.632 373.893 856.427 373.772C856.231 373.641 856.002 373.553 855.741 373.506C855.479 373.45 855.209 373.422 854.929 373.422H851.891V376.88ZM865.941 378H864.821V376.852H864.793C864.541 377.3 864.219 377.631 863.827 377.846C863.435 378.051 862.973 378.154 862.441 378.154C861.965 378.154 861.568 378.093 861.251 377.972C860.933 377.841 860.677 377.659 860.481 377.426C860.285 377.193 860.145 376.917 860.061 376.6C859.986 376.273 859.949 375.914 859.949 375.522V370.762H861.139V375.662C861.139 376.11 861.269 376.465 861.531 376.726C861.792 376.987 862.151 377.118 862.609 377.118C862.973 377.118 863.285 377.062 863.547 376.95C863.817 376.838 864.041 376.679 864.219 376.474C864.396 376.269 864.527 376.031 864.611 375.76C864.704 375.48 864.751 375.177 864.751 374.85V370.762H865.941V378ZM868.988 369.46H867.798V368.004H868.988V369.46ZM867.798 370.762H868.988V378H867.798V370.762ZM870.902 368.004H872.092V378H870.902V368.004ZM875.587 370.762H877.029V371.812H875.587V376.306C875.587 376.446 875.596 376.558 875.615 376.642C875.643 376.726 875.69 376.791 875.755 376.838C875.82 376.885 875.909 376.917 876.021 376.936C876.142 376.945 876.296 376.95 876.483 376.95H877.029V378H876.119C875.811 378 875.545 377.981 875.321 377.944C875.106 377.897 874.929 377.818 874.789 377.706C874.658 377.594 874.56 377.435 874.495 377.23C874.43 377.025 874.397 376.754 874.397 376.418V371.812H873.165V370.762H874.397V368.592H875.587V370.762ZM882.29 368.004H883.48V371.742H883.508C883.704 371.341 884.012 371.051 884.432 370.874C884.852 370.687 885.314 370.594 885.818 370.594C886.378 370.594 886.863 370.697 887.274 370.902C887.694 371.107 888.039 371.387 888.31 371.742C888.59 372.087 888.8 372.489 888.94 372.946C889.08 373.403 889.15 373.889 889.15 374.402C889.15 374.915 889.08 375.401 888.94 375.858C888.809 376.315 888.604 376.717 888.324 377.062C888.053 377.398 887.708 377.664 887.288 377.86C886.877 378.056 886.396 378.154 885.846 378.154C885.668 378.154 885.468 378.135 885.244 378.098C885.029 378.061 884.814 378 884.6 377.916C884.385 377.832 884.18 377.72 883.984 377.58C883.797 377.431 883.638 377.249 883.508 377.034H883.48V378H882.29V368.004ZM887.89 374.318C887.89 373.982 887.843 373.655 887.75 373.338C887.666 373.011 887.53 372.722 887.344 372.47C887.166 372.218 886.933 372.017 886.644 371.868C886.364 371.719 886.032 371.644 885.65 371.644C885.248 371.644 884.908 371.723 884.628 371.882C884.348 372.041 884.119 372.251 883.942 372.512C883.764 372.764 883.634 373.053 883.55 373.38C883.475 373.707 883.438 374.038 883.438 374.374C883.438 374.729 883.48 375.074 883.564 375.41C883.648 375.737 883.778 376.026 883.956 376.278C884.142 376.53 884.38 376.735 884.67 376.894C884.959 377.043 885.309 377.118 885.72 377.118C886.13 377.118 886.471 377.039 886.742 376.88C887.022 376.721 887.246 376.511 887.414 376.25C887.582 375.989 887.703 375.69 887.778 375.354C887.852 375.018 887.89 374.673 887.89 374.318ZM893.388 378.966C893.248 379.321 893.108 379.619 892.968 379.862C892.838 380.105 892.688 380.301 892.52 380.45C892.362 380.609 892.18 380.721 891.974 380.786C891.778 380.861 891.55 380.898 891.288 380.898C891.148 380.898 891.008 380.889 890.868 380.87C890.728 380.851 890.593 380.819 890.462 380.772V379.68C890.565 379.727 890.682 379.764 890.812 379.792C890.952 379.829 891.069 379.848 891.162 379.848C891.405 379.848 891.606 379.787 891.764 379.666C891.932 379.554 892.058 379.391 892.142 379.176L892.632 377.958L889.762 370.762H891.106L893.22 376.684H893.248L895.278 370.762H896.538L893.388 378.966ZM910.669 378H909.283L907.001 369.6H906.973L904.663 378H903.277L900.715 368.004H902.073L904.033 376.32H904.061L906.301 368.004H907.743L909.955 376.32H909.983L912.013 368.004H913.343L910.669 378ZM915.664 369.46H914.474V368.004H915.664V369.46ZM914.474 370.762H915.664V378H914.474V370.762ZM916.919 377.09L921.287 371.812H917.199V370.762H922.827V371.574L918.403 376.95H923.023V378H916.919V377.09ZM924.304 368.004H925.494V373.926L928.798 370.762H930.394L927.524 373.394L930.604 378H929.092L926.614 374.22L925.494 375.256V378H924.304V368.004ZM932.754 369.46H931.564V368.004H932.754V369.46ZM931.564 370.762H932.754V378H931.564V370.762ZM935.465 374.444C935.465 374.78 935.507 375.111 935.591 375.438C935.685 375.755 935.82 376.04 935.997 376.292C936.184 376.544 936.417 376.745 936.697 376.894C936.987 377.043 937.323 377.118 937.705 377.118C938.107 377.118 938.447 377.039 938.727 376.88C939.007 376.721 939.236 376.516 939.413 376.264C939.591 376.003 939.717 375.709 939.791 375.382C939.875 375.055 939.917 374.724 939.917 374.388C939.917 374.033 939.875 373.693 939.791 373.366C939.707 373.03 939.572 372.736 939.385 372.484C939.208 372.232 938.975 372.031 938.685 371.882C938.396 371.723 938.046 371.644 937.635 371.644C937.234 371.644 936.893 371.723 936.613 371.882C936.333 372.041 936.109 372.251 935.941 372.512C935.773 372.773 935.652 373.072 935.577 373.408C935.503 373.744 935.465 374.089 935.465 374.444ZM941.065 378H939.875V377.02H939.847C939.651 377.421 939.343 377.711 938.923 377.888C938.503 378.065 938.041 378.154 937.537 378.154C936.977 378.154 936.487 378.051 936.067 377.846C935.657 377.641 935.311 377.365 935.031 377.02C934.761 376.675 934.555 376.273 934.415 375.816C934.275 375.359 934.205 374.873 934.205 374.36C934.205 373.847 934.271 373.361 934.401 372.904C934.541 372.447 934.747 372.05 935.017 371.714C935.297 371.369 935.643 371.098 936.053 370.902C936.473 370.697 936.959 370.594 937.509 370.594C937.696 370.594 937.897 370.613 938.111 370.65C938.326 370.687 938.541 370.753 938.755 370.846C938.97 370.93 939.171 371.047 939.357 371.196C939.553 371.336 939.717 371.513 939.847 371.728H939.875V368.004H941.065V378ZM943.624 375.718C943.633 375.979 943.694 376.203 943.806 376.39C943.918 376.567 944.063 376.712 944.24 376.824C944.427 376.927 944.632 377.001 944.856 377.048C945.089 377.095 945.327 377.118 945.57 377.118C945.757 377.118 945.953 377.104 946.158 377.076C946.363 377.048 946.55 376.997 946.718 376.922C946.895 376.847 947.04 376.74 947.152 376.6C947.264 376.451 947.32 376.264 947.32 376.04C947.32 375.732 947.203 375.499 946.97 375.34C946.737 375.181 946.443 375.055 946.088 374.962C945.743 374.859 945.365 374.771 944.954 374.696C944.543 374.612 944.161 374.5 943.806 374.36C943.461 374.211 943.171 374.005 942.938 373.744C942.705 373.483 942.588 373.119 942.588 372.652C942.588 372.288 942.667 371.975 942.826 371.714C942.994 371.453 943.204 371.243 943.456 371.084C943.717 370.916 944.007 370.795 944.324 370.72C944.651 370.636 944.973 370.594 945.29 370.594C945.701 370.594 946.079 370.631 946.424 370.706C946.769 370.771 947.073 370.893 947.334 371.07C947.605 371.238 947.819 371.471 947.978 371.77C948.137 372.059 948.23 372.423 948.258 372.862H947.068C947.049 372.629 946.989 372.437 946.886 372.288C946.783 372.129 946.653 372.003 946.494 371.91C946.335 371.817 946.158 371.751 945.962 371.714C945.775 371.667 945.584 371.644 945.388 371.644C945.211 371.644 945.029 371.658 944.842 371.686C944.665 371.714 944.501 371.765 944.352 371.84C944.203 371.905 944.081 371.999 943.988 372.12C943.895 372.232 943.848 372.381 943.848 372.568C943.848 372.773 943.918 372.946 944.058 373.086C944.207 373.217 944.394 373.329 944.618 373.422C944.842 373.506 945.094 373.581 945.374 373.646C945.654 373.702 945.934 373.763 946.214 373.828C946.513 373.893 946.802 373.973 947.082 374.066C947.371 374.159 947.623 374.285 947.838 374.444C948.062 374.593 948.239 374.785 948.37 375.018C948.51 375.251 948.58 375.541 948.58 375.886C948.58 376.325 948.487 376.689 948.3 376.978C948.123 377.267 947.885 377.501 947.586 377.678C947.297 377.855 946.965 377.977 946.592 378.042C946.228 378.117 945.864 378.154 945.5 378.154C945.099 378.154 944.716 378.112 944.352 378.028C943.988 377.944 943.666 377.809 943.386 377.622C943.106 377.426 942.882 377.174 942.714 376.866C942.546 376.549 942.453 376.166 942.434 375.718H943.624Z" fill="#D4FF7A"/>
<path d="M941.474 342.5C942.396 342.498 943.31 342.677 944.163 343.029C945.015 343.381 945.79 343.898 946.443 344.55C947.096 345.203 947.614 345.978 947.967 346.831C948.32 347.684 948.501 348.598 948.5 349.522C948.505 353.353 945.367 356.486 941.51 356.5C937.665 356.515 934.491 353.345 934.5 349.499C934.509 345.653 937.645 342.506 941.474 342.5ZM939.537 351.456L943.468 351.456L943.468 347.546L939.537 347.546L939.537 351.456ZM934.846 350.265C935.16 353.571 938.022 355.98 940.682 356.139C940.51 355.836 940.315 355.542 940.169 355.226C939.705 354.216 939.5 353.135 939.371 352.04C939.344 351.803 939.293 351.681 939.014 351.646C937.547 351.444 936.091 351.201 934.846 350.262L934.846 350.265ZM948.161 348.733C947.937 345.767 944.607 342.463 942.326 342.898C942.449 343.097 942.583 343.292 942.693 343.496C943.263 344.568 943.479 345.738 943.629 346.926C943.662 347.19 943.717 347.323 944.034 347.367C945.475 347.557 946.91 347.797 948.161 348.73L948.161 348.733ZM940.731 342.842C937.371 343.149 934.984 346.144 934.879 348.711C936.191 347.735 937.742 347.541 939.307 347.305C939.541 345.756 939.731 344.19 940.731 342.839L940.731 342.842ZM942.28 356.154C945.437 355.883 947.964 353.097 948.14 350.285C946.822 351.267 945.257 351.466 943.694 351.702C943.463 353.252 943.271 354.804 942.28 356.15L942.28 356.154ZM939.597 351.761C939.658 352.16 939.705 352.559 939.782 352.953C939.966 353.906 940.175 354.857 940.731 355.679C941.219 356.402 941.766 356.424 942.247 355.706C943.043 354.517 943.213 353.137 943.408 351.761L939.597 351.761ZM943.407 347.238C943.346 346.833 943.305 346.433 943.224 346.042C943.023 345.067 942.826 344.085 942.221 343.258C941.749 342.609 941.229 342.6 940.779 343.263C939.967 344.459 939.797 345.848 939.599 347.238L943.407 347.238ZM943.754 351.404C944.082 351.359 944.393 351.325 944.698 351.271C945.715 351.086 946.733 350.884 947.619 350.311C948.426 349.789 948.421 349.179 947.597 348.68C946.418 347.972 945.093 347.768 943.752 347.603L943.754 351.404ZM939.248 347.598C938.913 347.646 938.58 347.682 938.25 347.742C937.245 347.924 936.245 348.136 935.371 348.699C934.595 349.203 934.564 349.826 935.362 350.273C936.024 350.643 936.77 350.884 937.502 351.103C938.066 351.272 938.667 351.318 939.248 351.418L939.248 347.598Z" fill="#D4FF7A" stroke="#D4FF7A" stroke-width="0.4375"/>
<g clip-path="url(#clip1_1940_216)">
<path d="M471.891 153.232C470.571 153.852 467.078 156.647 466.405 157.475C465.707 158.303 465.5 157.009 466.224 154.862C466.793 153.128 468.243 150.774 470.675 148.756C472.097 147.591 475.228 145.91 477.143 144.926C477.531 144.719 482.55 142.598 487.026 141.537C487.415 141.433 486.561 142.184 486.431 142.598C485.759 144.564 472.33 152.999 472.33 152.999L471.891 153.232ZM490.804 176.957C491.037 178.354 490.83 178.458 489.381 178.639C487.932 178.82 486.871 178.277 486.483 177.915C486.095 177.552 486.017 176.75 486.405 176.026C486.638 175.56 486.871 175.405 487.001 174.836C487.13 174.292 487.234 174.163 487.337 173.956C487.44 173.775 487.466 173.594 487.492 172.326C487.518 171.058 487.492 168.678 487.622 167.669C487.751 166.634 492.227 168.135 492.227 168.135C492.227 168.135 491.166 170.774 490.882 171.42C490.597 172.067 490.623 173.309 490.623 173.568C490.623 173.827 490.52 174.344 490.442 174.37C490.364 174.396 490.701 175.068 490.545 175.457C490.442 175.819 490.778 176.75 490.804 176.957ZM492.512 137.397C492.356 136.414 492.512 134.473 492.718 134.163C493.365 133.283 496.781 133.18 497.505 134.215C497.816 134.68 497.79 135.767 497.738 136.466C497.686 137.164 497.505 138.665 497.479 139.157C497.453 139.519 493.702 140.088 492.874 139.105C492.641 138.846 492.512 137.397 492.512 137.397ZM500.118 174.448C501.697 175.586 502.913 175.793 503.715 176.207C504.517 176.621 504.31 177.423 502.964 177.656C501.878 177.863 500.17 177.449 499.032 177.449C497.893 177.449 495.358 177.578 494.685 177.113C493.909 176.569 494.245 175.56 494.245 175.56C494.452 174.991 494.969 173.723 494.814 172.688C494.659 171.653 494.452 171.084 494.064 170.127C493.676 169.17 493.391 166.815 493.753 166.686C494.116 166.556 494.012 166.686 494.478 166.789C494.944 166.892 495.461 167.048 496.47 167.048C497.479 167.048 498.592 166.892 498.98 166.815C499.368 166.737 499.678 166.66 499.549 167.462C499.42 168.264 499.032 169.764 499.006 170.929C498.98 172.093 498.98 173.439 499.057 173.671C499.135 173.904 499.704 174.163 500.118 174.448Z" fill="#D4FF7A"/>
<path d="M494.582 139.984C491.736 142.442 486.225 143.115 478.049 146.272C475.953 147.074 470.364 149.48 469.019 151.99C473.547 149.376 475.229 152.973 475.591 156.673C475.927 160.14 477.661 161.951 482.111 161.847C486.69 161.744 488.088 164.409 489.355 167.539C491.813 155.56 495.746 153.231 498.281 151.187C503.663 146.815 497.04 139.105 494.582 139.984Z" fill="#D4FF7A"/>
<path d="M494.582 139.984C487.751 142.365 480.998 142.96 473.055 147.85C471.167 149.014 467.182 151.653 466.406 156.699C469.303 153.49 476.005 149.454 484.206 146.893C488.346 145.599 491.373 144.745 495.047 143.322C494.789 141.666 494.789 141.019 494.582 139.984Z" fill="#D4FF7A"/>
<path d="M503.301 154.163C503.301 154.163 502.809 155.845 501.826 156.388C501.826 156.388 501.101 156.647 499.652 155.845C499.239 155.612 498.928 154.81 498.954 154.551C498.98 153.93 499.368 153.646 499.368 153.646C499.368 153.646 499.782 152.947 500.273 152.973C500.765 152.999 501.593 153.076 501.852 152.843C502.085 152.585 503.352 153.309 503.301 154.163ZM492.744 137.889C492.744 137.889 492.641 139.208 492.46 140.036C492.434 140.191 491.658 140.269 491.088 140.502C492.175 143.607 498.721 143.581 499.575 142.054C499.161 141.77 498.333 141.33 497.945 141.175C497.557 141.019 497.583 141.045 497.557 140.321C497.531 139.596 497.479 138.251 497.427 137.889C497.376 137.526 493.365 137.526 492.744 137.889Z" fill="#D4FF7A"/>
<path d="M493.003 137.889C493.003 137.889 493.003 138.639 492.926 139.363C492.9 139.7 492.874 139.907 492.822 140.165C492.796 140.321 493.702 140.942 493.961 142.313C495.203 145.081 498.075 143.71 499.265 142.391C498.851 142.106 498.178 141.718 497.402 141.407C497.014 141.252 497.195 140.916 497.169 140.191C497.143 139.467 497.04 138.406 496.988 138.018C496.936 137.63 493.624 137.526 493.003 137.889Z" fill="#1A1A1A"/>
<path d="M492.745 137.889C492.745 137.889 492.719 138.354 492.641 138.898C492.977 139.234 493.417 139.7 493.754 139.984C493.987 140.191 494.556 140.166 495.073 140.166C495.539 140.166 495.953 140.217 496.134 140.114C496.548 139.907 497.143 139.389 497.479 139.001C497.454 138.536 497.428 138.096 497.402 137.889C497.376 137.526 493.365 137.526 492.745 137.889Z" fill="#D4FF7A"/>
<path d="M495.099 139.855C494.789 139.855 494.426 139.829 494.142 139.778C494.012 139.752 493.883 139.674 493.779 139.622C493.598 139.493 493.417 139.338 493.21 139.182C492.796 138.872 492.771 138.691 492.771 138.613C492.952 136.983 492.719 135.612 492.719 135.612C492.719 135.612 492.538 134.913 493.521 134.732C494.504 134.551 495.099 134.525 495.099 134.525C495.099 134.525 495.72 134.525 496.677 134.732C497.66 134.913 497.479 135.612 497.479 135.612C497.479 135.612 497.246 136.983 497.428 138.613C497.428 138.691 497.402 138.872 496.988 139.182C496.625 139.441 496.341 139.726 496.056 139.778C495.772 139.829 495.409 139.855 495.099 139.855Z" fill="#D4FF7A"/>
<path d="M495.099 133.853C493.391 133.853 493.055 134.318 492.563 134.836C492.46 134.965 492.537 135.741 492.719 137.397H492.952C492.952 137.397 492.796 136.931 492.822 136.388C492.848 135.845 492.952 135.871 492.874 135.741C492.77 135.586 492.563 135.327 493.029 135.069C493.495 134.81 494.219 135.275 495.099 135.301C495.979 135.275 496.729 134.81 497.195 135.069C497.66 135.327 497.453 135.586 497.35 135.741C497.247 135.896 497.376 135.845 497.402 136.388C497.428 136.931 497.272 137.397 497.272 137.397H497.505C497.66 135.741 497.764 135.017 497.686 134.887C497.246 134.318 496.807 133.878 495.099 133.853ZM503.301 154.241C503.301 154.241 502.809 155.819 501.852 156.362C501.645 156.259 501.671 156.104 501.49 155.871C501.438 155.793 501.257 155.741 501.179 155.664C501.102 155.586 501.128 155.457 500.998 155.353C500.895 155.25 500.817 155.327 500.713 155.25C500.61 155.146 500.584 155.017 500.507 154.939C500.455 154.888 500.248 154.862 500.196 154.81C500.067 154.68 498.928 154.448 498.98 154.189C499.083 153.801 499.29 153.516 499.29 153.516C499.29 153.516 499.782 152.792 500.274 152.818C500.765 152.843 501.231 152.947 501.49 152.714C501.774 152.455 503.379 153.413 503.301 154.241Z" fill="#D4FF7A"/>
<path d="M499.937 142.805C499.937 142.805 501.567 142.416 502.68 143.477C503.792 144.564 503.715 145.909 503.378 146.737C503.663 147.074 504.18 148.005 503.792 149.118C505.5 150.566 504.75 152.792 503.223 154.266C503.223 154.266 502.861 152.921 501.412 152.843C501.464 152.326 500.067 151.912 500.713 150.566C499.73 150.334 499.756 149.661 499.601 148.833C499.471 148.005 499.937 142.805 499.937 142.805Z" fill="#D4FF7A"/>
<path d="M499.342 143.529C499.342 143.529 501.231 142.572 502.344 143.658C503.456 144.745 503.145 145.935 502.809 146.763C503.094 147.099 503.766 148.057 503.352 149.195C503.275 149.454 502.706 149.454 502.292 150.127C503.326 149.531 503.973 149.687 504.206 150.437C504.568 151.601 503.766 152.998 503.068 153.775C503.068 153.749 503.042 153.723 503.042 153.697C502.938 154.085 502.809 154.835 502.033 155.663C501.645 156.077 501.334 156.026 500.894 155.922C500.377 155.793 500.196 155.56 499.471 155.172C499.058 154.939 499.29 154.654 499.29 154.421C499.29 154.37 499.342 154.292 499.42 154.189C499.471 154.059 499.627 153.852 499.86 153.619C499.86 153.619 500.196 153.154 500.688 153.18C501.179 153.205 501.697 153.102 501.826 152.973C501.826 152.067 500.791 152.041 501.153 150.489C501.179 150.411 501.309 150.282 501.722 150.23C501.101 150.101 500.817 150.075 500.377 149.661C500.067 149.376 499.834 149.014 499.756 148.548C499.601 147.746 499.342 143.529 499.342 143.529Z" fill="#1A1A1A"/>
<path d="M493.883 141.899C493.728 141.692 492.926 140.657 491.399 140.243C490.959 140.114 490.675 140.476 490.235 140.735C490.105 140.657 489.536 140.398 489.226 140.579C488.915 140.76 488.708 140.942 488.398 141.071C488.242 140.993 487.829 140.993 487.492 141.123C487.156 141.226 486.638 141.459 486.147 142.132C485.836 143.244 491.632 142.416 491.632 142.416L493.883 141.899Z" fill="#D4FF7A"/>
<path d="M493.935 141.899C493.106 141.614 493.236 140.657 491.399 140.502C491.037 140.476 490.804 140.761 490.545 140.942C490.674 141.071 490.804 141.278 490.881 141.485C490.649 141.226 490.235 140.89 489.82 140.812C489.432 140.735 489.174 141.019 488.76 141.226C488.837 141.304 488.915 141.433 489.018 141.589C488.656 141.356 488.397 141.278 487.906 141.459C487.569 141.563 486.923 141.847 486.431 142.546C486.121 143.658 491.657 142.416 491.657 142.416L493.935 141.899Z" fill="#D4FF7A"/>
<path d="M498.799 142.313C498.799 142.313 498.799 142.028 498.773 141.77C498.773 141.718 498.566 141.589 498.566 141.537L498.514 141.485C498.514 141.485 498.928 141.252 499.239 141.382C499.575 141.485 499.756 141.925 499.756 141.925C500.351 141.718 500.403 141.951 500.687 142.261C501.308 142.132 501.386 142.365 501.774 142.934C501.774 142.934 501.308 142.856 500.403 143.012C499.523 143.141 498.799 142.287 498.799 142.313Z" fill="#D4FF7A"/>
<path d="M498.695 142.184C498.695 142.184 498.851 142.054 498.799 142.028C499.083 141.873 499.472 141.692 499.653 142.184C500.248 141.977 500.325 142.261 500.61 142.572C501.334 142.235 501.386 142.649 501.438 142.83C501.205 142.83 500.869 142.856 500.403 142.908C499.523 143.037 498.669 142.158 498.695 142.184Z" fill="#D4FF7A"/>
<path d="M489.899 141.537C489.899 141.537 491.373 142.054 492.615 141.977C493.857 141.873 495.979 141.77 497.117 142.442C497.117 142.442 498.282 142.028 499.368 142.313C500.455 142.598 502.447 144.46 501.852 146.427C501.8 146.556 501.464 146.763 501.076 146.893C501.076 146.893 501.283 147.772 500.921 148.497C500.558 149.195 499.756 150.541 499.731 152.404C499.705 152.714 499.653 153.361 499.601 153.671C497.583 153.594 494.478 152.843 491.425 152.895C491.451 152.559 491.477 152.352 491.503 152.015H491.58C491.425 151.162 491.373 150.722 491.218 150.075C490.235 149.454 489.2 148.73 488.32 147.358C487.467 145.987 489.899 141.537 489.899 141.537ZM499.886 155.508C499.886 155.508 501.49 161.252 499.601 163.659C499.601 163.659 499.886 164.771 499.239 165.961C499.135 166.479 499.006 166.944 498.928 167.462C498.592 169.609 498.023 170.515 497.868 173.956L496.315 173.93C496.315 173.93 496.134 171.446 495.591 170.127C495.28 169.377 494.064 168.367 494.116 167.358C494.168 166.582 494.323 165.935 495.643 164.9C495.746 163.4 494.245 161.977 494.478 156.388L499.886 155.508Z" fill="#D4FF7A"/>
<path d="M499.42 155.275C499.834 157.915 500.791 161.821 499.058 163.736C499.16 164.221 499.169 164.722 499.083 165.211C499.032 165.521 498.928 165.857 498.799 166.22C498.54 166.841 498.437 167.746 498.359 168.289C498.023 170.437 498.023 170.541 497.867 173.982L496.315 173.956C496.315 173.956 496.134 171.472 495.591 170.153C495.28 169.402 494.633 168.755 494.582 167.746C494.53 166.97 495.073 165.418 496.367 165.47C496.289 162.339 494.84 162.96 494.452 156.44L499.42 155.275ZM489.899 141.537C489.899 141.537 490.468 141.718 491.089 141.77C491.71 141.821 492.382 141.77 492.977 141.744C494.219 141.64 495.979 141.511 497.143 142.184C497.143 142.184 497.79 141.977 498.488 142.028C498.799 142.054 499.109 142.313 499.472 142.417C500.61 142.701 501.697 144.59 501.205 146.297C501.153 146.427 500.791 146.297 500.377 146.427C500.455 146.789 500.507 147.617 500.092 148.497C499.653 149.377 499.083 150.515 499.187 152.688C496.47 152.559 495.254 152.378 492.563 152.248C492.33 151.291 492.175 150.334 492.149 149.842C492.512 149.661 492.718 149.506 493.003 149.195C492.227 149.325 491.916 149.273 491.451 149.014C490.985 148.756 490.157 147.928 489.743 147.384C489.691 147.332 489.407 148.186 488.76 148.212C488.527 147.876 489.51 146.919 489.329 146.556C488.682 145.237 489.899 141.537 489.899 141.537Z" fill="#1A1A1A"/>
<path d="M499.626 153.128C499.626 153.128 499.678 154.059 499.678 154.292C499.678 154.551 499.885 155.327 499.911 155.689C499.626 156.181 498.385 157.293 496.134 157.707C493.908 158.173 490.959 154.68 490.959 154.68C491.037 154.344 491.295 153.361 491.476 152.843C491.502 152.792 491.554 152.662 491.554 152.61C491.787 152.274 499.626 153.128 499.626 153.128Z" fill="#D4FF7A"/>
<path d="M499.058 153.206C499.058 153.853 499.161 154.318 499.239 154.732C499.368 155.483 499.575 155.974 499.575 156.466C499.575 157.966 497.609 157.708 495.953 157.759C493.728 158.225 491.839 154.732 491.839 154.732C491.994 154.137 492.098 153.465 492.33 152.895C492.356 152.585 492.408 152.197 492.434 152.016C495.59 152.016 497.815 152.197 499.109 152.326C499.161 152.611 499.109 153.102 499.058 153.206Z" fill="#1A1A1A"/>
<path d="M496.574 156.543C496.574 156.543 495.203 153.49 491.089 154.396C490.106 157.164 488.786 160.347 489.64 163.788C488.786 164.952 487.803 165.599 487.803 167.746C487.803 169.894 487.906 170.256 487.906 170.256L490.933 170.412C490.933 170.412 491.917 169.144 492.305 167.773C492.408 167.384 492.512 166.686 492.434 165.884C492.537 165.729 492.977 165.366 493.029 164.668C493.029 164.668 494.504 163.892 495.358 162.003C496.16 160.295 495.953 158.82 496.574 156.543Z" fill="#D4FF7A"/>
<path d="M496.573 156.543C496.496 156.259 495.461 153.464 491.632 154.292C489.381 160.295 490.209 162.779 490.545 163.865C489.018 165.806 488.32 166.22 488.63 170.152H490.649C491.58 168.678 491.787 168.134 491.839 166.194C491.839 166.116 491.554 166.349 491.347 166.608C491.502 165.806 491.942 165.651 492.279 165.159C492.434 164.952 492.563 164.641 492.563 164.227C494.374 163.011 495.047 161.485 495.435 159.907C495.746 158.82 496.108 157.035 496.573 156.543Z" fill="#1A1A1A"/>
<path d="M490.183 152.378C490.183 152.378 490.882 152.403 491.503 152.611C492.098 152.817 492.098 152.947 492.331 153.206C492.563 153.465 493.133 153.852 493.029 154.241C492.977 154.448 492.848 154.499 492.667 154.68C492.589 154.758 492.02 155.379 491.891 155.457C491.813 155.508 491.71 155.586 491.632 155.638L491.244 155.896C490.985 156.026 490.804 156.103 490.519 156.078C490.519 156.078 489.873 156.052 489.459 155.612C489.459 155.612 489.407 155.405 489.51 155.301C489.51 155.301 488.967 154.836 488.812 154.525C488.656 154.215 488.656 153.775 488.76 153.542C488.812 153.309 489.821 152.662 490.183 152.378ZM490.83 177.552L490.752 178.199C490.752 178.199 490.519 178.484 488.786 178.458C487.027 178.432 486.561 177.889 486.406 177.604L486.302 176.931C486.302 176.931 486.639 176.44 486.716 176.44C487.285 176.491 489.226 177.268 490.571 177.475C490.7 177.475 490.726 177.526 490.83 177.552ZM494.581 176.233C494.581 176.517 494.556 176.517 494.556 176.802C494.866 177.035 495.642 177.164 497.117 177.138C499.264 177.086 501.257 177.785 503.689 177.371L503.715 176.905L503.482 176.88L494.866 176.181L494.581 176.233Z" fill="#D4FF7A"/>
<path d="M496.47 177.138H497.117C498.514 177.087 499.834 177.397 501.257 177.475C502.007 177.449 502.939 177.268 502.861 176.724L495.513 176.103C495.073 176.595 495.409 177.009 496.47 177.138ZM488.036 166.246C488.269 166.401 489.847 167.332 492.408 167.203C492.356 167.695 492.382 168.652 491.244 170.334C490.675 171.162 490.183 172.611 490.08 174.448C490.106 174.862 490.338 175.224 490.028 175.767C490.131 176.103 490.545 176.776 490.752 177.19C490.959 177.604 491.063 178.07 489.691 178.096C488.294 178.122 486.043 177.966 486.354 176.88C486.509 176.311 486.949 175.715 487.001 175.482C487.052 175.25 487.052 174.551 487.492 174.085C487.88 172.792 487.751 171.55 487.674 170.386C487.544 169.169 487.518 167.229 488.036 166.246ZM490.442 145.159C492.279 142.701 490.726 140.735 487.777 141.33C486.587 141.563 485.397 142.391 485.319 143.891C484.931 143.943 484.051 143.995 483.611 145.599C483.275 146.841 483.094 147.074 482.499 147.695C482.111 148.134 482.525 149.04 482.809 149.687C483.767 151.912 486.716 152.119 488.708 153.801C489.381 153.62 490.08 152.869 490.287 152.378C488.605 150.385 488.967 149.609 488.294 148.574C489.019 148.316 490.675 147.307 490.442 145.159Z" fill="#D4FF7A"/>
<path d="M490.08 145.004C490.183 144.848 490.364 144.512 490.442 144.383C490.468 144.357 490.752 144.848 490.778 144.823C491.477 143.684 491.658 142.028 490.856 141.873C490.674 141.847 490.338 141.77 490.054 141.666C489.536 141.485 489.071 141.485 488.242 141.64C487.104 141.847 485.966 142.675 485.966 143.865C485.966 143.943 486.768 144.176 487.001 145.133C486.612 144.59 485.94 143.994 485.138 144.512C484.284 145.055 484.724 146.297 483.585 147.591C483.197 148.031 483.249 148.548 483.663 149.583C484.335 151.213 487.518 152.093 489.251 153.645C489.665 153.464 489.95 153.05 490.157 152.74C488.993 151.524 488.527 150.385 488.191 149.557C487.777 148.6 487.311 148.057 486.405 147.332C486.871 147.513 487.233 147.694 487.44 147.849C487.673 148.005 488.009 148.031 488.32 147.927C489.433 147.539 490.028 145.987 490.08 145.004Z" fill="#1A1A1A"/>
<path d="M501.335 145.418C501.257 146.401 500.533 145.909 500.144 145.728C499.368 145.392 498.592 145.159 497.686 145.159C496.781 145.159 495.617 145.237 494.608 145.495C493.21 145.883 492.796 145.858 492.175 145.547C491.555 145.211 490.468 144.383 490.468 144.383C490.468 144.383 490.442 144.642 490.701 144.978C491.037 145.392 491.788 145.909 492.796 146.246C493.288 146.401 493.676 146.297 494.116 146.194C496.419 145.625 498.851 145.521 500.895 146.763C500.998 146.815 501.361 146.66 501.516 146.427C501.723 146.091 501.335 145.418 501.335 145.418Z" fill="#D4FF7A"/>
<path d="M489.562 155.275C489.769 155.405 490.028 155.482 490.312 155.715C490.312 155.715 490.079 155.715 489.976 155.612C489.847 155.534 489.588 155.301 489.562 155.275Z" fill="#D4FF7A"/>
<path d="M497.04 134.758C496.962 134.525 496.393 134.111 495.073 134.111C493.65 134.111 493.236 134.551 493.21 134.784C493.21 134.861 493.107 135.689 493.081 136.026C493.081 136.026 493.081 136.44 493.107 137.061C493.133 137.475 493.236 137.707 493.288 138.251C493.34 138.82 493.495 139.182 493.78 139.648C493.909 139.725 494.012 139.803 494.142 139.829C494.659 139.932 495.565 139.958 496.056 139.829C496.341 139.751 496.703 139.26 496.781 138.82C496.884 138.277 496.988 137.889 497.014 137.552C497.065 137.216 497.091 136.466 497.117 136.259C497.195 135.689 497.065 134.81 497.04 134.758Z" fill="#1A1A1A"/>
<path d="M494.323 166.737C494.323 166.737 495.694 167.332 499.084 166.815C499.084 166.815 498.126 171.627 498.566 174.033C498.566 174.033 499.006 174.654 502.266 175.845C502.266 175.845 503.715 176.207 503.663 176.931C503.663 176.931 503.715 177.087 501.956 177.035C500.196 176.983 498.54 176.673 497.376 176.673C496.212 176.673 494.97 176.724 494.763 176.388C494.53 176.078 494.815 175.275 495.151 174.81C495.513 174.318 495.41 173.956 495.384 173.076C495.306 170.774 493.547 168.393 494.323 166.737Z" fill="#D4FF7A"/>
<path d="M494.038 167.177C493.857 167.436 494.064 168.419 494.323 169.376C494.582 170.334 495.151 170.903 495.28 172.481C495.409 174.033 495.435 174.24 494.995 175.146C494.556 176.051 494.426 176.879 495.953 176.905C497.479 176.931 498.307 176.879 499.86 177.112C501.412 177.345 501.955 177.423 502.809 177.293C503.663 177.164 503.844 176.879 503.482 176.621C503.12 176.362 501.619 176.077 500.972 175.56C500.351 175.094 498.592 174.318 498.566 174.111C498.489 173.412 498.463 170.877 498.592 170.049C498.721 169.221 498.902 168.031 498.954 167.72C499.006 167.41 499.265 167.099 498.825 167.203C498.385 167.306 496.729 167.539 495.487 167.462C494.245 167.384 494.116 167.099 494.038 167.177Z" fill="#161B22"/>
<path d="M494.918 175.172C495.358 175.379 496.004 175.534 496.496 175.534C496.496 175.534 496.315 176.388 496.599 176.905C496.884 177.423 494.53 177.112 494.53 177.112L494.426 175.275L494.918 175.172ZM501.774 177.397C502.188 177.268 502.473 176.802 502.136 176.362C501.774 175.922 501.464 175.845 501.929 175.819C502.395 175.793 504.103 176.828 504.103 176.828L503.223 177.63L501.774 177.397ZM493.96 168.186C494.556 168.393 495.461 168.445 496.237 168.419C497.013 168.393 498.178 168.289 498.928 168.031C499.678 167.772 499.368 168.315 499.368 168.315L498.954 168.704C498.954 168.704 497.971 169.092 496.367 169.066C494.478 169.04 493.909 168.833 493.909 168.833L493.96 168.186ZM494.012 169.48C494.607 169.687 495.513 169.739 496.289 169.713C497.065 169.687 498.1 169.687 498.85 169.402C499.161 169.299 498.98 169.739 498.98 169.739L498.85 169.971C498.85 169.971 497.841 170.334 496.263 170.308C494.374 170.282 494.038 170.126 494.038 170.126L494.012 169.48Z" fill="#D4FF7A"/>
<path d="M492.305 151.343C492.305 151.524 494.323 152.533 495.435 152.74C496.548 152.947 498.877 152.74 499.239 152.662L499.187 153.025C499.187 153.025 496.419 153.439 494.297 152.869C492.175 152.3 492.408 152.171 492.408 152.171L492.305 151.343Z" fill="#D4FF7A"/>
<path d="M487.984 173.413C488.294 173.568 489.407 173.852 490.131 173.697C490.235 173.671 490.131 171.912 490.416 171.11C490.83 169.997 491.503 169.092 491.813 167.126C490.726 167.022 489.485 166.737 488.838 166.53C488.01 169.066 488.294 171.239 487.984 173.413ZM489.718 175.043C489.899 175.094 490.028 175.301 490.08 175.172C490.183 174.939 489.899 174.499 489.873 174.189V174.163C489.64 173.956 488.062 173.93 488.165 174.034C487.984 174.37 487.7 174.318 487.596 174.991C487.544 175.327 487.958 175.043 488.346 175.017C487.648 175.482 486.846 176.078 486.716 176.595C486.561 177.319 486.82 177.527 487.596 177.915C488.269 178.07 489.071 178.096 489.692 178.07C490.39 177.94 490.52 177.604 490.313 177.138C490.002 176.44 489.795 175.534 489.718 175.043Z" fill="#1A1A1A"/>
<path d="M490.002 141.433C490.856 141.925 492.046 141.796 492.486 141.77C492.589 141.77 493.624 141.589 493.676 141.614C493.78 141.64 493.78 141.718 493.78 141.718C493.78 141.718 493.391 141.925 492.512 141.977C491.684 142.028 490.701 141.977 490.157 141.718C489.51 141.433 490.002 141.433 490.002 141.433ZM498.799 141.925C498.954 142.028 499.963 142.417 500.403 142.882C500.791 143.296 500.584 143.27 500.507 143.167C500.403 143.037 499.601 142.494 499.291 142.365C498.98 142.236 498.592 142.003 498.592 141.951C498.592 141.899 498.799 141.925 498.799 141.925Z" fill="#D4FF7A"/>
<path d="M489.873 152.662C490.623 152.611 491.399 152.792 491.891 153.309C492.149 153.568 492.563 153.852 492.512 154.111C492.512 154.189 492.356 154.396 492.227 154.551C492.15 154.654 491.917 154.887 491.839 154.965C491.736 155.043 491.373 155.327 491.296 155.379C491.218 155.431 491.115 155.56 491.037 155.586C490.778 155.715 490.494 155.612 490.235 155.483C489.976 155.353 490.287 155.327 490.002 155.12C489.304 154.629 488.915 154.292 489.2 153.335C489.226 153.154 489.51 152.947 489.873 152.662Z" fill="#1A1A1A"/>
<path opacity="0.4" d="M483.275 146.737C480.946 147.669 475.021 150.618 473.339 151.524C474.736 152.403 475.383 154.525 475.59 156.673C475.616 156.88 475.642 157.061 475.668 157.268C475.694 157.449 475.72 157.578 475.745 157.656C475.745 157.682 475.745 157.733 475.771 157.759C477.298 153.594 482.757 149.195 482.964 148.859C483.068 148.704 482.835 148.031 483.197 147.384C483.663 146.556 484.568 146.194 483.275 146.737ZM488.812 166.272C490.002 163.891 490.028 161.614 490.002 158.949C490.002 157.837 490.804 156.258 490.39 156.698C488.837 158.432 484.931 161.692 482.11 161.873C486.069 161.744 487.621 163.736 488.812 166.272Z" fill="#D4FF7A"/>
<path d="M471.062 153.723C472.537 152.662 480.17 148.6 482.007 148.031C483.844 147.436 483.275 146.737 483.275 146.737C483.275 146.737 475.823 149.945 471.373 152.714" fill="#D4FF7A"/>
<path d="M493.107 140.942C493.78 141.382 495.461 141.796 495.927 141.873C496.393 141.977 497.143 141.382 497.505 141.226C497.893 141.045 498.566 140.942 499.342 141.64C499.42 141.718 499.161 142.054 499.161 142.054C499.135 142.028 498.98 142.028 498.773 141.925C498.566 141.821 498.385 141.744 498.074 141.77C496.781 141.925 496.574 142.365 495.435 142.106C494.297 141.847 494.012 141.64 492.9 141.692" fill="#D4FF7A"/>
<path d="M493.107 140.942C493.78 141.382 495.461 141.796 495.927 141.873C496.393 141.977 497.143 141.382 497.505 141.226C497.893 141.045 498.566 140.942 499.342 141.64C499.42 141.718 499.161 142.054 499.161 142.054C499.135 142.028 498.98 142.028 498.773 141.925C498.566 141.821 498.385 141.744 498.074 141.77C496.781 141.925 496.574 142.365 495.435 142.106C494.297 141.847 494.012 141.64 492.9 141.692" stroke="#D4FF7A" stroke-width="0.201461" stroke-miterlimit="10" stroke-linejoin="round"/>
<path d="M492.874 141.019C493.728 141.382 495.383 141.77 495.849 141.873C496.315 141.977 497.065 141.511 497.427 141.278C498.074 140.864 498.902 141.2 499.29 141.64C499.549 141.925 499.653 142.106 499.653 142.184C499.653 142.287 499.342 142.184 499.342 142.184C499.161 142.106 498.954 142.08 498.799 141.977C498.592 141.873 498.385 141.718 498.074 141.744C496.781 141.899 496.522 142.339 495.409 142.08C494.297 141.821 494.012 141.588 492.822 141.666" fill="#D4FF7A"/>
<path d="M488.863 165.185C488.812 165.133 488.915 165.081 488.863 165.081C488.527 165.081 488.061 164.823 487.803 164.46C486.69 162.856 485.06 161.795 482.11 161.873C477.686 161.976 475.927 160.165 475.59 156.698C475.409 154.81 474.892 152.973 473.831 151.938L473.21 152.326C474.4 153.361 474.788 155.043 475.047 157.345C475.461 160.812 478.255 162.416 481.515 162.468C484.905 162.52 486.121 163.219 487.388 164.926C487.802 165.47 488.268 165.651 488.63 165.728L488.863 165.185Z" fill="#D4FF7A"/>
</g>
<path d="M410.135 229.426C409.269 230.581 408.196 231.417 406.917 231.933C405.638 232.428 404.348 232.675 403.048 232.675C401.398 232.675 399.923 232.376 398.623 231.778C397.323 231.159 396.22 230.334 395.312 229.302C394.404 228.271 393.713 227.084 393.238 225.743C392.764 224.402 392.527 223.01 392.527 221.566C392.527 219.956 392.743 218.43 393.177 216.986C393.63 215.521 394.291 214.242 395.157 213.148C396.044 212.055 397.138 211.188 398.437 210.549C399.758 209.889 401.295 209.559 403.048 209.559C404.245 209.559 405.369 209.703 406.422 209.992C407.494 210.26 408.443 210.693 409.269 211.292C410.114 211.89 410.816 212.653 411.373 213.582C411.951 214.489 412.343 215.593 412.549 216.893H409.609C409.465 216.047 409.196 215.325 408.804 214.727C408.412 214.108 407.928 213.602 407.35 213.21C406.772 212.818 406.112 212.529 405.369 212.344C404.647 212.137 403.874 212.034 403.048 212.034C401.707 212.034 400.552 212.302 399.582 212.839C398.633 213.375 397.849 214.087 397.231 214.974C396.632 215.841 396.189 216.841 395.9 217.976C395.611 219.09 395.467 220.235 395.467 221.411C395.467 222.566 395.632 223.68 395.962 224.753C396.292 225.805 396.777 226.744 397.416 227.569C398.056 228.374 398.84 229.024 399.768 229.519C400.717 229.993 401.811 230.231 403.048 230.231C404.204 230.231 405.225 230.045 406.112 229.674C406.999 229.302 407.742 228.797 408.34 228.157C408.959 227.497 409.423 226.734 409.733 225.867C410.042 224.98 410.176 224.031 410.135 223.02H403.079V220.544H412.765V232.18H410.909L410.135 229.426ZM429.872 216.552C429.707 214.964 429.129 213.819 428.139 213.117C427.17 212.395 425.921 212.034 424.395 212.034C423.776 212.034 423.167 212.096 422.569 212.22C421.971 212.344 421.434 212.55 420.96 212.839C420.506 213.128 420.134 213.52 419.846 214.015C419.577 214.489 419.443 215.088 419.443 215.81C419.443 216.491 419.639 217.048 420.031 217.481C420.444 217.893 420.98 218.234 421.64 218.502C422.321 218.77 423.085 218.997 423.93 219.183C424.776 219.348 425.633 219.534 426.499 219.74C427.386 219.946 428.253 220.194 429.098 220.483C429.944 220.751 430.697 221.122 431.358 221.597C432.038 222.071 432.575 222.669 432.967 223.391C433.379 224.114 433.586 225.021 433.586 226.115C433.586 227.291 433.317 228.302 432.781 229.147C432.265 229.973 431.595 230.654 430.77 231.19C429.944 231.706 429.016 232.077 427.984 232.304C426.974 232.552 425.963 232.675 424.952 232.675C423.714 232.675 422.538 232.521 421.424 232.211C420.33 231.902 419.361 231.437 418.515 230.819C417.69 230.179 417.03 229.374 416.534 228.405C416.06 227.414 415.823 226.249 415.823 224.908H418.608C418.608 225.836 418.783 226.641 419.134 227.322C419.505 227.982 419.98 228.529 420.557 228.962C421.156 229.395 421.847 229.715 422.631 229.921C423.415 230.127 424.219 230.231 425.045 230.231C425.705 230.231 426.365 230.169 427.025 230.045C427.706 229.921 428.315 229.715 428.851 229.426C429.387 229.117 429.821 228.704 430.151 228.188C430.481 227.672 430.646 227.012 430.646 226.208C430.646 225.444 430.439 224.825 430.027 224.351C429.635 223.876 429.098 223.495 428.418 223.206C427.757 222.896 427.004 222.649 426.159 222.463C425.313 222.277 424.446 222.092 423.559 221.906C422.693 221.7 421.836 221.473 420.991 221.225C420.145 220.957 419.381 220.617 418.701 220.204C418.04 219.771 417.504 219.224 417.091 218.564C416.699 217.883 416.503 217.037 416.503 216.026C416.503 214.912 416.73 213.953 417.184 213.148C417.638 212.323 418.236 211.653 418.979 211.137C419.742 210.6 420.599 210.208 421.548 209.961C422.517 209.693 423.508 209.559 424.518 209.559C425.653 209.559 426.705 209.693 427.675 209.961C428.645 210.229 429.49 210.652 430.213 211.23C430.955 211.807 431.533 212.54 431.946 213.427C432.379 214.293 432.616 215.335 432.657 216.552H429.872ZM440.964 223.051H448.453L444.771 212.746H444.709L440.964 223.051ZM443.162 210.085H446.411L455.045 232.18H451.795L449.382 225.527H440.036L437.56 232.18H434.559L443.162 210.085ZM460.164 220.668H465.92C467.592 220.689 468.809 220.348 469.572 219.647C470.356 218.946 470.748 217.935 470.748 216.614C470.748 215.294 470.356 214.293 469.572 213.613C468.809 212.911 467.592 212.56 465.92 212.56H460.164V220.668ZM457.225 210.085H466.911C469.139 210.085 470.82 210.662 471.955 211.818C473.11 212.952 473.688 214.551 473.688 216.614C473.688 218.677 473.11 220.287 471.955 221.442C470.82 222.597 469.139 223.165 466.911 223.144H460.164V232.18H457.225V210.085ZM485.966 210.085H489.989L496.952 228.652L503.946 210.085H507.969V232.18H505.184V213.798H505.122L498.221 232.18H495.714L488.813 213.798H488.751V232.18H485.966V210.085ZM514.346 224.196C514.346 225.166 514.47 226.032 514.718 226.796C514.986 227.538 515.347 228.168 515.801 228.683C516.255 229.178 516.781 229.56 517.379 229.828C517.998 230.096 518.648 230.231 519.329 230.231C520.01 230.231 520.649 230.096 521.247 229.828C521.866 229.56 522.403 229.178 522.857 228.683C523.311 228.168 523.661 227.538 523.909 226.796C524.177 226.032 524.311 225.166 524.311 224.196C524.311 223.226 524.177 222.37 523.909 221.628C523.661 220.864 523.311 220.225 522.857 219.709C522.403 219.193 521.866 218.801 521.247 218.533C520.649 218.265 520.01 218.131 519.329 218.131C518.648 218.131 517.998 218.265 517.379 218.533C516.781 218.801 516.255 219.193 515.801 219.709C515.347 220.225 514.986 220.864 514.718 221.628C514.47 222.37 514.346 223.226 514.346 224.196ZM511.561 224.196C511.561 223.02 511.726 221.927 512.056 220.916C512.387 219.884 512.882 218.997 513.542 218.254C514.202 217.491 515.017 216.893 515.987 216.46C516.956 216.026 518.07 215.81 519.329 215.81C520.608 215.81 521.722 216.026 522.671 216.46C523.641 216.893 524.456 217.491 525.116 218.254C525.776 218.997 526.271 219.884 526.601 220.916C526.931 221.927 527.096 223.02 527.096 224.196C527.096 225.372 526.931 226.465 526.601 227.476C526.271 228.487 525.776 229.374 525.116 230.138C524.456 230.88 523.641 231.468 522.671 231.902C521.722 232.314 520.608 232.521 519.329 232.521C518.07 232.521 516.956 232.314 515.987 231.902C515.017 231.468 514.202 230.88 513.542 230.138C512.882 229.374 512.387 228.487 512.056 227.476C511.726 226.465 511.561 225.372 511.561 224.196ZM533.849 216.181H537.037V218.502H533.849V228.436C533.849 228.745 533.87 228.993 533.911 229.178C533.973 229.364 534.076 229.508 534.221 229.612C534.365 229.715 534.561 229.787 534.809 229.828C535.077 229.849 535.417 229.859 535.83 229.859H537.037V232.18H535.025C534.344 232.18 533.756 232.139 533.261 232.056C532.787 231.953 532.395 231.778 532.085 231.53C531.797 231.283 531.58 230.932 531.435 230.478C531.291 230.024 531.219 229.426 531.219 228.683V218.502H528.496V216.181H531.219V211.384H533.849V216.181ZM542.744 213.303H540.114V210.085H542.744V213.303ZM540.114 216.181H542.744V232.18H540.114V216.181ZM548.738 224.196C548.738 225.166 548.861 226.032 549.109 226.796C549.377 227.538 549.738 228.168 550.192 228.683C550.646 229.178 551.172 229.56 551.77 229.828C552.389 230.096 553.039 230.231 553.72 230.231C554.401 230.231 555.04 230.096 555.639 229.828C556.258 229.56 556.794 229.178 557.248 228.683C557.702 228.168 558.052 227.538 558.3 226.796C558.568 226.032 558.702 225.166 558.702 224.196C558.702 223.226 558.568 222.37 558.3 221.628C558.052 220.864 557.702 220.225 557.248 219.709C556.794 219.193 556.258 218.801 555.639 218.533C555.04 218.265 554.401 218.131 553.72 218.131C553.039 218.131 552.389 218.265 551.77 218.533C551.172 218.801 550.646 219.193 550.192 219.709C549.738 220.225 549.377 220.864 549.109 221.628C548.861 222.37 548.738 223.226 548.738 224.196ZM545.953 224.196C545.953 223.02 546.118 221.927 546.448 220.916C546.778 219.884 547.273 218.997 547.933 218.254C548.593 217.491 549.408 216.893 550.378 216.46C551.347 216.026 552.462 215.81 553.72 215.81C554.999 215.81 556.113 216.026 557.062 216.46C558.032 216.893 558.847 217.491 559.507 218.254C560.167 218.997 560.662 219.884 560.992 220.916C561.322 221.927 561.487 223.02 561.487 224.196C561.487 225.372 561.322 226.465 560.992 227.476C560.662 228.487 560.167 229.374 559.507 230.138C558.847 230.88 558.032 231.468 557.062 231.902C556.113 232.314 554.999 232.521 553.72 232.521C552.462 232.521 551.347 232.314 550.378 231.902C549.408 231.468 548.593 230.88 547.933 230.138C547.273 229.374 546.778 228.487 546.448 227.476C546.118 226.465 545.953 225.372 545.953 224.196ZM564.589 216.181H567.065V218.719H567.126C568.22 216.779 569.953 215.81 572.325 215.81C573.378 215.81 574.254 215.954 574.956 216.243C575.657 216.532 576.225 216.934 576.658 217.45C577.091 217.966 577.39 218.585 577.555 219.307C577.741 220.008 577.834 220.792 577.834 221.659V232.18H575.203V221.349C575.203 220.359 574.915 219.575 574.337 218.997C573.759 218.419 572.965 218.131 571.954 218.131C571.149 218.131 570.448 218.254 569.85 218.502C569.272 218.75 568.787 219.1 568.395 219.554C568.003 220.008 567.704 220.544 567.498 221.163C567.312 221.762 567.219 222.422 567.219 223.144V232.18H564.589V216.181Z" fill="#D4FF7A"/>
<path d="M399.061 250.756H401.141L404.741 260.356L408.357 250.756H410.437V262.18H408.997V252.676H408.965L405.397 262.18H404.101L400.533 252.676H400.501V262.18H399.061V250.756ZM413.735 258.052C413.735 258.554 413.799 259.002 413.927 259.396C414.065 259.78 414.252 260.106 414.487 260.372C414.721 260.628 414.993 260.826 415.303 260.964C415.623 261.103 415.959 261.172 416.311 261.172C416.663 261.172 416.993 261.103 417.303 260.964C417.623 260.826 417.9 260.628 418.135 260.372C418.369 260.106 418.551 259.78 418.679 259.396C418.817 259.002 418.887 258.554 418.887 258.052C418.887 257.551 418.817 257.108 418.679 256.724C418.551 256.33 418.369 255.999 418.135 255.732C417.9 255.466 417.623 255.263 417.303 255.124C416.993 254.986 416.663 254.916 416.311 254.916C415.959 254.916 415.623 254.986 415.303 255.124C414.993 255.263 414.721 255.466 414.487 255.732C414.252 255.999 414.065 256.33 413.927 256.724C413.799 257.108 413.735 257.551 413.735 258.052ZM412.295 258.052C412.295 257.444 412.38 256.879 412.551 256.356C412.721 255.823 412.977 255.364 413.319 254.98C413.66 254.586 414.081 254.276 414.583 254.052C415.084 253.828 415.66 253.716 416.311 253.716C416.972 253.716 417.548 253.828 418.039 254.052C418.54 254.276 418.961 254.586 419.303 254.98C419.644 255.364 419.9 255.823 420.071 256.356C420.241 256.879 420.327 257.444 420.327 258.052C420.327 258.66 420.241 259.226 420.071 259.748C419.9 260.271 419.644 260.73 419.303 261.124C418.961 261.508 418.54 261.812 418.039 262.036C417.548 262.25 416.972 262.356 416.311 262.356C415.66 262.356 415.084 262.25 414.583 262.036C414.081 261.812 413.66 261.508 413.319 261.124C412.977 260.73 412.721 260.271 412.551 259.748C412.38 259.226 412.295 258.66 412.295 258.052ZM423.818 253.908H425.466V255.108H423.818V260.244C423.818 260.404 423.829 260.532 423.85 260.628C423.882 260.724 423.936 260.799 424.01 260.852C424.085 260.906 424.186 260.943 424.314 260.964C424.453 260.975 424.629 260.98 424.842 260.98H425.466V262.18H424.426C424.074 262.18 423.77 262.159 423.514 262.116C423.269 262.063 423.066 261.972 422.906 261.844C422.757 261.716 422.645 261.535 422.57 261.3C422.496 261.066 422.458 260.756 422.458 260.372V255.108H421.05V253.908H422.458V251.428H423.818V253.908ZM428.417 252.42H427.057V250.756H428.417V252.42ZM427.057 253.908H428.417V262.18H427.057V253.908ZM431.516 258.052C431.516 258.554 431.58 259.002 431.708 259.396C431.847 259.78 432.033 260.106 432.268 260.372C432.503 260.628 432.775 260.826 433.084 260.964C433.404 261.103 433.74 261.172 434.092 261.172C434.444 261.172 434.775 261.103 435.084 260.964C435.404 260.826 435.681 260.628 435.916 260.372C436.151 260.106 436.332 259.78 436.46 259.396C436.599 259.002 436.668 258.554 436.668 258.052C436.668 257.551 436.599 257.108 436.46 256.724C436.332 256.33 436.151 255.999 435.916 255.732C435.681 255.466 435.404 255.263 435.084 255.124C434.775 254.986 434.444 254.916 434.092 254.916C433.74 254.916 433.404 254.986 433.084 255.124C432.775 255.263 432.503 255.466 432.268 255.732C432.033 255.999 431.847 256.33 431.708 256.724C431.58 257.108 431.516 257.551 431.516 258.052ZM430.076 258.052C430.076 257.444 430.161 256.879 430.332 256.356C430.503 255.823 430.759 255.364 431.1 254.98C431.441 254.586 431.863 254.276 432.364 254.052C432.865 253.828 433.441 253.716 434.092 253.716C434.753 253.716 435.329 253.828 435.82 254.052C436.321 254.276 436.743 254.586 437.084 254.98C437.425 255.364 437.681 255.823 437.852 256.356C438.023 256.879 438.108 257.444 438.108 258.052C438.108 258.66 438.023 259.226 437.852 259.748C437.681 260.271 437.425 260.73 437.084 261.124C436.743 261.508 436.321 261.812 435.82 262.036C435.329 262.25 434.753 262.356 434.092 262.356C433.441 262.356 432.865 262.25 432.364 262.036C431.863 261.812 431.441 261.508 431.1 261.124C430.759 260.73 430.503 260.271 430.332 259.748C430.161 259.226 430.076 258.66 430.076 258.052ZM439.712 253.908H440.992V255.22H441.024C441.589 254.218 442.485 253.716 443.712 253.716C444.256 253.716 444.709 253.791 445.072 253.94C445.434 254.09 445.728 254.298 445.952 254.564C446.176 254.831 446.33 255.151 446.416 255.524C446.512 255.887 446.56 256.292 446.56 256.74V262.18H445.2V256.58C445.2 256.068 445.05 255.663 444.752 255.364C444.453 255.066 444.042 254.916 443.52 254.916C443.104 254.916 442.741 254.98 442.432 255.108C442.133 255.236 441.882 255.418 441.68 255.652C441.477 255.887 441.322 256.164 441.216 256.484C441.12 256.794 441.072 257.135 441.072 257.508V262.18H439.712V253.908ZM459.903 262.18H458.623V260.868H458.591C458.303 261.38 457.935 261.759 457.487 262.004C457.039 262.239 456.511 262.356 455.903 262.356C455.359 262.356 454.906 262.287 454.543 262.148C454.181 261.999 453.887 261.791 453.663 261.524C453.439 261.258 453.279 260.943 453.183 260.58C453.098 260.207 453.055 259.796 453.055 259.348V253.908H454.415V259.508C454.415 260.02 454.565 260.426 454.863 260.724C455.162 261.023 455.573 261.172 456.095 261.172C456.511 261.172 456.869 261.108 457.167 260.98C457.477 260.852 457.733 260.671 457.935 260.436C458.138 260.202 458.287 259.93 458.383 259.62C458.49 259.3 458.543 258.954 458.543 258.58V253.908H459.903V262.18ZM463.834 253.908H465.482V255.108H463.834V260.244C463.834 260.404 463.845 260.532 463.866 260.628C463.898 260.724 463.951 260.799 464.026 260.852C464.101 260.906 464.202 260.943 464.33 260.964C464.469 260.975 464.645 260.98 464.858 260.98H465.482V262.18H464.442C464.09 262.18 463.786 262.159 463.53 262.116C463.285 262.063 463.082 261.972 462.922 261.844C462.773 261.716 462.661 261.535 462.586 261.3C462.511 261.066 462.474 260.756 462.474 260.372V255.108H461.066V253.908H462.474V251.428H463.834V253.908ZM468.433 252.42H467.073V250.756H468.433V252.42ZM467.073 253.908H468.433V262.18H467.073V253.908ZM470.62 250.756H471.98V262.18H470.62V250.756ZM475.527 252.42H474.167V250.756H475.527V252.42ZM474.167 253.908H475.527V262.18H474.167V253.908ZM479.521 253.908H481.169V255.108H479.521V260.244C479.521 260.404 479.532 260.532 479.553 260.628C479.585 260.724 479.639 260.799 479.713 260.852C479.788 260.906 479.889 260.943 480.017 260.964C480.156 260.975 480.332 260.98 480.545 260.98H481.169V262.18H480.129C479.777 262.18 479.473 262.159 479.217 262.116C478.972 262.063 478.769 261.972 478.609 261.844C478.46 261.716 478.348 261.535 478.273 261.3C478.199 261.066 478.161 260.756 478.161 260.372V255.108H476.753V253.908H478.161V251.428H479.521V253.908ZM484.12 252.42H482.76V250.756H484.12V252.42ZM482.76 253.908H484.12V262.18H482.76V253.908ZM491.971 257.252C491.95 256.932 491.875 256.628 491.747 256.34C491.63 256.052 491.464 255.807 491.251 255.604C491.048 255.391 490.803 255.226 490.515 255.108C490.238 254.98 489.928 254.916 489.587 254.916C489.235 254.916 488.915 254.98 488.627 255.108C488.35 255.226 488.11 255.391 487.907 255.604C487.704 255.818 487.544 256.068 487.427 256.356C487.31 256.634 487.24 256.932 487.219 257.252H491.971ZM493.283 259.556C493.102 260.484 492.702 261.183 492.083 261.652C491.464 262.122 490.686 262.356 489.747 262.356C489.086 262.356 488.51 262.25 488.019 262.036C487.539 261.823 487.134 261.524 486.803 261.14C486.472 260.756 486.222 260.298 486.051 259.764C485.891 259.231 485.8 258.65 485.779 258.02C485.779 257.391 485.875 256.815 486.067 256.292C486.259 255.77 486.526 255.316 486.867 254.932C487.219 254.548 487.63 254.25 488.099 254.036C488.579 253.823 489.102 253.716 489.667 253.716C490.403 253.716 491.011 253.871 491.491 254.18C491.982 254.479 492.371 254.863 492.659 255.332C492.958 255.802 493.16 256.314 493.267 256.868C493.384 257.423 493.432 257.951 493.411 258.452H487.219C487.208 258.815 487.251 259.162 487.347 259.492C487.443 259.812 487.598 260.1 487.811 260.356C488.024 260.602 488.296 260.799 488.627 260.948C488.958 261.098 489.347 261.172 489.795 261.172C490.371 261.172 490.84 261.039 491.203 260.772C491.576 260.506 491.822 260.1 491.939 259.556H493.283ZM495.653 259.572C495.664 259.871 495.733 260.127 495.861 260.34C495.989 260.543 496.154 260.708 496.357 260.836C496.57 260.954 496.805 261.039 497.061 261.092C497.328 261.146 497.6 261.172 497.877 261.172C498.09 261.172 498.314 261.156 498.549 261.124C498.784 261.092 498.997 261.034 499.189 260.948C499.392 260.863 499.557 260.74 499.685 260.58C499.813 260.41 499.877 260.196 499.877 259.94C499.877 259.588 499.744 259.322 499.477 259.14C499.21 258.959 498.874 258.815 498.469 258.708C498.074 258.591 497.642 258.49 497.173 258.404C496.704 258.308 496.266 258.18 495.861 258.02C495.466 257.85 495.136 257.615 494.869 257.316C494.602 257.018 494.469 256.602 494.469 256.068C494.469 255.652 494.56 255.295 494.741 254.996C494.933 254.698 495.173 254.458 495.461 254.276C495.76 254.084 496.09 253.946 496.453 253.86C496.826 253.764 497.194 253.716 497.557 253.716C498.026 253.716 498.458 253.759 498.853 253.844C499.248 253.919 499.594 254.058 499.893 254.26C500.202 254.452 500.448 254.719 500.629 255.06C500.81 255.391 500.917 255.807 500.949 256.308H499.589C499.568 256.042 499.498 255.823 499.381 255.652C499.264 255.471 499.114 255.327 498.933 255.22C498.752 255.114 498.549 255.039 498.325 254.996C498.112 254.943 497.893 254.916 497.669 254.916C497.466 254.916 497.258 254.932 497.045 254.964C496.842 254.996 496.656 255.055 496.485 255.14C496.314 255.215 496.176 255.322 496.069 255.46C495.962 255.588 495.909 255.759 495.909 255.972C495.909 256.207 495.989 256.404 496.149 256.564C496.32 256.714 496.533 256.842 496.789 256.948C497.045 257.044 497.333 257.13 497.653 257.204C497.973 257.268 498.293 257.338 498.613 257.412C498.954 257.487 499.285 257.578 499.605 257.684C499.936 257.791 500.224 257.935 500.469 258.116C500.725 258.287 500.928 258.506 501.077 258.772C501.237 259.039 501.317 259.37 501.317 259.764C501.317 260.266 501.21 260.682 500.997 261.012C500.794 261.343 500.522 261.61 500.181 261.812C499.85 262.015 499.472 262.154 499.045 262.228C498.629 262.314 498.213 262.356 497.797 262.356C497.338 262.356 496.901 262.308 496.485 262.212C496.069 262.116 495.701 261.962 495.381 261.748C495.061 261.524 494.805 261.236 494.613 260.884C494.421 260.522 494.314 260.084 494.293 259.572H495.653ZM507.834 255.108H506.442V253.908H507.834V252.676C507.834 252.004 508.026 251.498 508.41 251.156C508.805 250.804 509.375 250.628 510.122 250.628C510.25 250.628 510.394 250.639 510.554 250.66C510.725 250.682 510.874 250.714 511.002 250.756V251.94C510.885 251.898 510.757 251.871 510.618 251.86C510.479 251.839 510.351 251.828 510.234 251.828C509.903 251.828 509.647 251.892 509.466 252.02C509.285 252.148 509.194 252.394 509.194 252.756V253.908H510.794V255.108H509.194V262.18H507.834V255.108ZM513 258.052C513 258.554 513.064 259.002 513.192 259.396C513.331 259.78 513.518 260.106 513.752 260.372C513.987 260.628 514.259 260.826 514.568 260.964C514.888 261.103 515.224 261.172 515.576 261.172C515.928 261.172 516.259 261.103 516.568 260.964C516.888 260.826 517.166 260.628 517.4 260.372C517.635 260.106 517.816 259.78 517.944 259.396C518.083 259.002 518.152 258.554 518.152 258.052C518.152 257.551 518.083 257.108 517.944 256.724C517.816 256.33 517.635 255.999 517.4 255.732C517.166 255.466 516.888 255.263 516.568 255.124C516.259 254.986 515.928 254.916 515.576 254.916C515.224 254.916 514.888 254.986 514.568 255.124C514.259 255.263 513.987 255.466 513.752 255.732C513.518 255.999 513.331 256.33 513.192 256.724C513.064 257.108 513 257.551 513 258.052ZM511.56 258.052C511.56 257.444 511.646 256.879 511.816 256.356C511.987 255.823 512.243 255.364 512.584 254.98C512.926 254.586 513.347 254.276 513.848 254.052C514.35 253.828 514.926 253.716 515.576 253.716C516.238 253.716 516.814 253.828 517.304 254.052C517.806 254.276 518.227 254.586 518.568 254.98C518.91 255.364 519.166 255.823 519.336 256.356C519.507 256.879 519.592 257.444 519.592 258.052C519.592 258.66 519.507 259.226 519.336 259.748C519.166 260.271 518.91 260.73 518.568 261.124C518.227 261.508 517.806 261.812 517.304 262.036C516.814 262.25 516.238 262.356 515.576 262.356C514.926 262.356 514.35 262.25 513.848 262.036C513.347 261.812 512.926 261.508 512.584 261.124C512.243 260.73 511.987 260.271 511.816 259.748C511.646 259.226 511.56 258.66 511.56 258.052ZM521.148 253.908H522.428V255.652H522.46C522.791 254.98 523.196 254.484 523.676 254.164C524.156 253.844 524.764 253.695 525.5 253.716V255.156C524.956 255.156 524.492 255.231 524.108 255.38C523.724 255.53 523.415 255.748 523.18 256.036C522.945 256.324 522.775 256.676 522.668 257.092C522.561 257.498 522.508 257.967 522.508 258.5V262.18H521.148V253.908ZM539.745 260.756C539.297 261.354 538.742 261.786 538.081 262.052C537.42 262.308 536.753 262.436 536.081 262.436C535.228 262.436 534.465 262.282 533.793 261.972C533.121 261.652 532.55 261.226 532.081 260.692C531.612 260.159 531.254 259.546 531.009 258.852C530.764 258.159 530.641 257.439 530.641 256.692C530.641 255.86 530.753 255.071 530.977 254.324C531.212 253.567 531.553 252.906 532.001 252.34C532.46 251.775 533.025 251.327 533.697 250.996C534.38 250.655 535.174 250.484 536.081 250.484C536.7 250.484 537.281 250.559 537.825 250.708C538.38 250.847 538.87 251.071 539.297 251.38C539.734 251.69 540.097 252.084 540.385 252.564C540.684 253.034 540.886 253.604 540.993 254.276H539.473C539.398 253.839 539.26 253.466 539.057 253.156C538.854 252.836 538.604 252.575 538.305 252.372C538.006 252.17 537.665 252.02 537.281 251.924C536.908 251.818 536.508 251.764 536.081 251.764C535.388 251.764 534.79 251.903 534.289 252.18C533.798 252.458 533.393 252.826 533.073 253.284C532.764 253.732 532.534 254.25 532.385 254.836C532.236 255.412 532.161 256.004 532.161 256.612C532.161 257.21 532.246 257.786 532.417 258.34C532.588 258.884 532.838 259.37 533.169 259.796C533.5 260.212 533.905 260.548 534.385 260.804C534.876 261.05 535.441 261.172 536.081 261.172C536.678 261.172 537.206 261.076 537.665 260.884C538.124 260.692 538.508 260.431 538.817 260.1C539.137 259.759 539.377 259.364 539.537 258.916C539.697 258.458 539.766 257.967 539.745 257.444H536.097V256.164H541.105V262.18H540.145L539.745 260.756ZM549.95 254.1C549.864 253.279 549.566 252.687 549.054 252.324C548.552 251.951 547.907 251.764 547.118 251.764C546.798 251.764 546.483 251.796 546.174 251.86C545.864 251.924 545.587 252.031 545.342 252.18C545.107 252.33 544.915 252.532 544.766 252.788C544.627 253.034 544.558 253.343 544.558 253.716C544.558 254.068 544.659 254.356 544.862 254.58C545.075 254.794 545.352 254.97 545.694 255.108C546.046 255.247 546.44 255.364 546.878 255.46C547.315 255.546 547.758 255.642 548.206 255.748C548.664 255.855 549.112 255.983 549.55 256.132C549.987 256.271 550.376 256.463 550.718 256.708C551.07 256.954 551.347 257.263 551.55 257.636C551.763 258.01 551.87 258.479 551.87 259.044C551.87 259.652 551.731 260.175 551.454 260.612C551.187 261.039 550.84 261.391 550.414 261.668C549.987 261.935 549.507 262.127 548.974 262.244C548.451 262.372 547.928 262.436 547.406 262.436C546.766 262.436 546.158 262.356 545.582 262.196C545.016 262.036 544.515 261.796 544.078 261.476C543.651 261.146 543.31 260.73 543.054 260.228C542.808 259.716 542.686 259.114 542.686 258.42H544.126C544.126 258.9 544.216 259.316 544.398 259.668C544.59 260.01 544.835 260.292 545.134 260.516C545.443 260.74 545.8 260.906 546.206 261.012C546.611 261.119 547.027 261.172 547.454 261.172C547.795 261.172 548.136 261.14 548.478 261.076C548.83 261.012 549.144 260.906 549.422 260.756C549.699 260.596 549.923 260.383 550.094 260.116C550.264 259.85 550.35 259.508 550.35 259.092C550.35 258.698 550.243 258.378 550.03 258.132C549.827 257.887 549.55 257.69 549.198 257.54C548.856 257.38 548.467 257.252 548.03 257.156C547.592 257.06 547.144 256.964 546.686 256.868C546.238 256.762 545.795 256.644 545.358 256.516C544.92 256.378 544.526 256.202 544.174 255.988C543.832 255.764 543.555 255.482 543.342 255.14C543.139 254.788 543.038 254.351 543.038 253.828C543.038 253.252 543.155 252.756 543.39 252.34C543.624 251.914 543.934 251.567 544.318 251.3C544.712 251.023 545.155 250.82 545.646 250.692C546.147 250.554 546.659 250.484 547.182 250.484C547.768 250.484 548.312 250.554 548.814 250.692C549.315 250.831 549.752 251.05 550.126 251.348C550.51 251.647 550.808 252.026 551.022 252.484C551.246 252.932 551.368 253.471 551.39 254.1H549.95ZM555.685 257.46H559.557L557.653 252.132H557.621L555.685 257.46ZM556.821 250.756H558.501L562.965 262.18H561.285L560.037 258.74H555.205L553.925 262.18H552.373L556.821 250.756ZM565.612 256.228H568.588C569.452 256.239 570.081 256.063 570.476 255.7C570.881 255.338 571.084 254.815 571.084 254.132C571.084 253.45 570.881 252.932 570.476 252.58C570.081 252.218 569.452 252.036 568.588 252.036H565.612V256.228ZM564.092 250.756H569.1C570.252 250.756 571.121 251.055 571.708 251.652C572.305 252.239 572.604 253.066 572.604 254.132C572.604 255.199 572.305 256.031 571.708 256.628C571.121 257.226 570.252 257.519 569.1 257.508H565.612V262.18H564.092V250.756Z" fill="#D4FF7A"/>
<defs>
<clipPath id="clip0_1940_216">
<rect width="72.2368" height="15.7435" fill="white" transform="translate(877 21)"/>
</clipPath>
<clipPath id="clip1_1940_216">
<rect width="40" height="46.3607" fill="white" transform="translate(465.5 132.82)"/>
</clipPath>
</defs>
</svg>
