<svg xmlns="http://www.w3.org/2000/svg" width="2987" height="653" viewBox="0 0 2987 653" fill="#fff" fill-rule="nonzero"><path class="fill" d="M510.9 326.54c0-56.296-17.774-104.33-53.322-144.076-35.534-39.745-79.223-59.624-131.052-59.624-51.844 0-95.504 19.88-131.052 59.624s-53.322 87.78-53.322 144.076c0 56.3 17.774 104.2 53.322 143.624 35.548 39.453 79.208 59.157 131.052 59.157 51.83 0 95.518-19.704 131.052-59.157C493.125 430.74 510.9 382.85 510.9 326.54m47.077 232.148c-62.784 62.324-140.083 93.487-231.882 93.487-91.828 0-169.127-31.162-231.9-93.487C31.385 496.348 0 418.844 0 326.087c0-92.728 31.385-170.26 94.183-232.6C156.967 31.162 234.266 0 326.094 0c91.8 0 169.1 31.162 231.882 93.487 62.784 62.34 94.197 139.872 94.197 232.6 0 92.757-31.413 170.26-94.197 232.6m303.12-169.032l112.13-355.33h147.37l111.2 355.33 125.688-355.33h152.804l-220.623 617.85H1184.8l-138.326-429.572-137.45 429.572h-104.87l-220.62-617.85h152.804zM1986.86 326.54c0-56.296-17.76-104.33-53.293-144.076-35.548-39.745-79.235-59.624-131.064-59.624-51.843 0-95.516 19.88-131.05 59.624s-53.307 87.78-53.307 144.076c0 56.3 17.774 104.2 53.307 143.624 35.533 39.453 79.207 59.157 131.05 59.157 51.828 0 95.516-19.704 131.064-59.157 35.533-39.424 53.293-87.313 53.293-143.624m47.105 232.148c-62.782 62.324-140.094 93.487-231.906 93.487-91.826 0-169.1-31.162-231.892-93.487-62.797-62.34-94.195-139.843-94.195-232.6 0-92.728 31.398-170.26 94.195-232.6C1632.95 31.162 1710.233 0 1802.06 0c91.812 0 169.124 31.162 231.906 93.487 62.768 62.34 94.18 139.872 94.18 232.6 0 92.757-31.413 170.26-94.18 232.6m303.12-169.032l112.117-355.33H2596.6l111.197 355.33 125.676-355.33h152.806l-220.612 617.85h-104.885L2522.43 222.602l-137.437 429.572h-104.87l-220.626-617.85h152.806z"></path></svg>
